<?xml version="1.0" encoding="UTF-8"?>
<svg version="1.1" xmlns="http://www.w3.org/2000/svg" width="1024" height="1024">
<path d="M0 0 C0.92554688 -0.02900391 1.85109375 -0.05800781 2.8046875 -0.08789062 C8.98541296 -0.14463457 13.76572352 0.66989738 18.875 4.3125 C22.15175909 8.17739534 23.39626863 11.28582059 23.875 16.3125 C26.8469385 15.18798273 29.20940687 14.08956209 31.875 12.3125 C32.865 12.3125 33.855 12.3125 34.875 12.3125 C34.875 11.6525 34.875 10.9925 34.875 10.3125 C46.76143168 4.42187899 58.33404402 1.73895266 71.4375 5.2734375 C74.4016657 6.43687254 77.10812891 7.741406 79.875 9.3125 C80.54789063 9.6734375 81.22078125 10.034375 81.9140625 10.40625 C89.77363639 15.25356429 94.64351077 24.14335221 97.21484375 32.78125 C99.7534643 46.36061675 98.67945645 60.58953579 91.5 72.625 C90.6375437 73.86300033 89.76258879 75.0923927 88.875 76.3125 C88.26591797 77.27542969 88.26591797 77.27542969 87.64453125 78.2578125 C81.52009405 87.41752796 71.56865564 93.44119325 61.875 98.3125 C61.76959074 100.52331851 61.76959074 100.52331851 62.875 103.3125 C64.53484798 103.99596682 66.20336805 104.65838315 67.875 105.3125 C70.32568173 106.82451482 72.73127408 108.38500004 74.875 110.3125 C74.875 110.9725 74.875 111.6325 74.875 112.3125 C75.431875 112.539375 75.98875 112.76625 76.5625 113 C82.57432451 116.41211661 87.7865533 123.1356066 90.875 129.3125 C92.14130394 138.25677337 89.63603534 144.79863855 84.875 152.3125 C82.3125 155.3125 82.3125 155.3125 79.875 157.3125 C79.00875 158.055 78.1425 158.7975 77.25 159.5625 C72.81523295 162.83022309 68.19784181 162.97899649 62.875 162.3125 C59.625 160.5625 59.625 160.5625 56.875 158.3125 C56.10027344 157.73886719 55.32554687 157.16523437 54.52734375 156.57421875 C51.47333518 153.96999053 49.10396303 151.05159996 46.6875 147.875 C46.21554199 147.2660791 45.74358398 146.6571582 45.25732422 146.02978516 C42.8515239 142.9196525 40.47640144 139.7871676 38.11328125 136.64453125 C37.67330811 136.0630835 37.23333496 135.48163574 36.7800293 134.88256836 C35.56837103 133.27803978 34.365933 131.66656064 33.1640625 130.0546875 C30.93506454 127.38445445 28.66564072 125.37343255 25.875 123.3125 C25.85518066 123.94639648 25.83536133 124.58029297 25.81494141 125.23339844 C24.7771876 156.8017547 24.7771876 156.8017547 20.0625 162 C11.73329494 168.04275661 -3.59405679 166.06898326 -13.375 164.625 C-18.7506338 163.41652418 -23.1355528 161.35688155 -26.22106934 156.63522339 C-28.94315714 151.30297745 -30.341431 146.14555727 -31.34375 140.2578125 C-31.59602356 138.77717819 -31.59602356 138.77717819 -31.85339355 137.26663208 C-33.73676325 124.98609281 -33.73034774 112.64927897 -33.64648438 100.25390625 C-33.62383315 96.88281801 -33.63717511 93.51300369 -33.66025543 90.14196014 C-33.80258841 65.53106416 -32.08327528 40.77524686 -24.125 17.3125 C-23.81949219 16.37535156 -23.51398437 15.43820312 -23.19921875 14.47265625 C-18.98104372 3.30471266 -11.03361611 0.11243495 0 0 Z M22.875 52.3125 C21.23445558 55.19859027 20.62563624 57.25738762 20.64453125 60.5703125 C20.64646484 61.36050781 20.64839844 62.15070313 20.65039062 62.96484375 C20.66263672 63.78082031 20.67488281 64.59679687 20.6875 65.4375 C20.68814453 66.26121094 20.68878906 67.08492187 20.68945312 67.93359375 C20.60495422 72.25941579 20.60495422 72.25941579 21.875 76.3125 C24.79416538 76.66001969 27.00695476 76.84530018 29.57421875 75.26953125 C32.58437642 72.78414683 34.65982005 71.04930964 35.1484375 67.10546875 C35.37362512 61.35728754 35.37362512 61.35728754 32.8125 56.3125 C29.4182228 54.00150276 26.86229472 53.17250474 22.875 52.3125 Z " fill="#870001" transform="translate(677.125,391.6875)"/>
<path d="M0 0 C7.90639974 6.94804826 9.66797552 15.6934013 11.8125 25.5625 C13.95552822 35.12427997 16.22882977 44.63927446 18.6875 54.125 C18.96432617 55.20168945 19.24115234 56.27837891 19.52636719 57.38769531 C20.3478046 60.53637671 21.19743101 63.67553753 22.0625 66.8125 C22.37928711 67.98087402 22.69607422 69.14924805 23.02246094 70.35302734 C23.3527832 71.50883301 23.68310547 72.66463867 24.0234375 73.85546875 C24.31782715 74.90114014 24.6122168 75.94681152 24.91552734 77.02416992 C26.16644544 80.06519496 27.60011183 81.67211643 30.0625 83.8125 C32.29270692 79.65280774 33.10176752 75.60082255 34 71 C34.17329834 70.1227124 34.34659668 69.2454248 34.52514648 68.34155273 C36.70411079 56.93840664 38.01734271 45.41417326 39.41699219 33.89501953 C39.76479729 31.07398667 40.13079571 28.25580144 40.5 25.4375 C40.59804932 24.60033447 40.69609863 23.76316895 40.79711914 22.90063477 C41.72955343 15.92389021 43.52820419 8.67701168 49 3.875 C55.97436424 -0.82202081 62.18071444 -0.55376874 70.375 -0.5625 C71.57318359 -0.58699219 72.77136719 -0.61148437 74.00585938 -0.63671875 C82.55195099 -0.66497029 88.24777215 0.2143813 94.5390625 6.1484375 C98.56792481 13.19378134 96.21240028 23.19978479 94.625 30.828125 C93.96529759 34.32821276 93.57001529 37.83683831 93.1875 41.375 C91.03968738 60.50470566 87.74997803 79.43773915 83.80273438 98.27197266 C83.12044845 101.53533365 82.44837467 104.80059246 81.77909851 108.06663513 C81.17470784 111.00846657 80.56392544 113.94894709 79.9515686 116.88912964 C79.65592816 118.31202789 79.3620563 119.73529503 79.07015991 121.15896606 C72.80918026 151.62150275 72.80918026 151.62150275 60.0625 160.0625 C47.19147318 167.45061483 32.76324432 170.11837238 18.12890625 167.234375 C16.00455744 166.56088836 14.06570215 165.78280104 12.0625 164.8125 C10.99 164.35875 9.9175 163.905 8.8125 163.4375 C0.53456523 158.54599309 -3.39683244 150.26317356 -7.3125 141.875 C-7.7053418 141.03960693 -8.09818359 140.20421387 -8.50292969 139.34350586 C-11.42834351 133.05722042 -14.0891395 126.70457137 -16.59765625 120.2421875 C-17.87799738 116.96481283 -19.23856862 113.73363522 -20.625 110.5 C-22.41031643 106.23791126 -23.87064984 102.00158954 -25.12890625 97.55859375 C-26.11976251 94.19351186 -27.24721679 90.8841472 -28.375 87.5625 C-33.43426062 72.56914065 -37.11938096 57.29712702 -40.48242188 41.85351562 C-40.84548858 40.22516922 -41.23810026 38.60341894 -41.640625 36.984375 C-43.47476535 29.28098551 -45.05101134 18.93818106 -41.9453125 11.40625 C-36.48841392 4.37702471 -26.17796307 0.84004178 -17.75 -0.8125 C-5.09017176 -2.05772901 -5.09017176 -2.05772901 0 0 Z " fill="#880001" transform="translate(418.9375,396.1875)"/>
<path d="M0 0 C5.1036181 5.40383093 7.39261358 11.62168831 9.0625 18.75 C9.23531494 19.46244873 9.40812988 20.17489746 9.58618164 20.90893555 C10.454297 24.52985254 11.25314522 28.15184753 11.9375 31.8125 C13.50235159 39.97694305 15.81182682 47.98548617 18 56 C18.38043457 57.39605469 18.38043457 57.39605469 18.76855469 58.8203125 C19.54537304 61.65352824 20.33309904 64.48346612 21.125 67.3125 C21.48706543 68.627948 21.48706543 68.627948 21.85644531 69.9699707 C23.16799528 74.59672784 24.6632446 78.76203828 27 83 C27.66 83 28.32 83 29 83 C31.87479839 72.93372216 34.03708949 62.98407115 35.625 52.625 C35.8406131 51.25799823 36.05660006 49.89105539 36.27294922 48.52416992 C37.37829023 41.46889916 38.36692868 34.4135486 39.125 27.3125 C41.19783899 9.08262138 41.19783899 9.08262138 46.875 3.875 C53.64295738 -1.45974288 60.07580308 -1.33640322 68.375 -1.3125 C70.04175781 -1.33666992 70.04175781 -1.33666992 71.7421875 -1.36132812 C81.21492531 -1.36696666 87.08085327 0.41033645 94 7 C95.20401346 10.61204037 94.94868325 13.70705565 94.6875 17.4375 C94.63972412 18.15615234 94.59194824 18.87480469 94.54272461 19.61523438 C94.16548549 24.7894577 93.45892388 29.83690447 92.5234375 34.94140625 C91.95442252 38.26632215 91.56668426 41.58565424 91.1875 44.9375 C88.98048455 63.63057052 85.29484073 82.19320235 81.48828125 100.61865234 C80.79389456 104.00517622 80.12316404 107.39627821 79.45141602 110.78735352 C78.79223773 114.10641794 78.12268021 117.42334903 77.45263672 120.74023438 C77.03396115 122.83045068 76.62706023 124.92261091 76.22265625 127.015625 C73.64387708 139.89558152 69.9935391 151.02118399 59 159 C46.90402692 166.82840505 32.04833655 168.5559256 18 167 C14.02673177 166.11705151 10.60461403 164.87413809 7 163 C5.906875 162.443125 4.81375 161.88625 3.6875 161.3125 C-3.15652212 155.42345771 -6.51119056 147.1337941 -10 139 C-10.55021155 137.76739193 -11.10240413 136.53566684 -11.65625 135.3046875 C-19.82812625 117.05718212 -26.42672747 98.1968276 -32 79 C-32.38211988 77.71593951 -32.76500396 76.43210632 -33.1484375 75.1484375 C-34.24286823 71.47704334 -35.320254 67.80098922 -36.38574219 64.12109375 C-36.94373557 62.19428671 -37.50674377 60.2689337 -38.0703125 58.34375 C-40.16908171 50.87411469 -41.8076 43.3711824 -43.25 35.75 C-43.42539307 34.85128174 -43.60078613 33.95256348 -43.78149414 33.02661133 C-46.78146778 16.49876866 -46.78146778 16.49876866 -43.25 10.1875 C-34.42013137 -0.36774526 -12.48893009 -6.13826666 0 0 Z " fill="#880001" transform="translate(177,397)"/>
<path d="M0 0 C2.82197835 0.01397504 5.64069576 -0.02049566 8.46240234 -0.05834961 C18.57074251 -0.10121911 28.1875147 0.04933844 37.06005859 5.57641602 C37.55505859 7.06141602 37.55505859 7.06141602 38.06005859 8.57641602 C38.67880859 8.82391602 39.29755859 9.07141602 39.93505859 9.32641602 C42.50696299 10.83930095 43.47015154 12.42688299 44.51708984 15.19750977 C46.33945458 23.18182719 45.98760519 31.91349524 42.52490234 39.38110352 C39.39935991 44.06524978 34.99803353 47.93689757 29.42431641 49.15014648 C25.54071691 49.6422194 21.72405646 49.7015165 17.81787109 49.67407227 C17.04949921 49.67265732 16.28112732 49.67124237 15.48947144 49.66978455 C13.05462621 49.66422285 10.61987565 49.65167762 8.18505859 49.63891602 C6.52620576 49.63389606 4.86735148 49.62933402 3.20849609 49.62524414 C-0.84101911 49.61426599 -4.89046425 49.59702808 -8.93994141 49.57641602 C-10.2622333 52.2209998 -10.03671335 54.25402903 -10.00244141 57.20141602 C-9.99341797 58.20430664 -9.98439453 59.20719727 -9.97509766 60.24047852 C-9.96349609 61.01133789 -9.95189453 61.78219727 -9.93994141 62.57641602 C-4.73479024 62.67803502 0.37723597 62.6013524 5.56005859 62.07641602 C21.0495045 60.61060687 21.0495045 60.61060687 28.06005859 65.57641602 C31.51451722 69.03087464 31.21776765 72.78907229 31.24755859 77.51391602 C31.26173828 78.53356445 31.27591797 79.55321289 31.29052734 80.60375977 C31.04159906 83.8145127 30.66685691 85.78178398 29.06005859 88.57641602 C24.69438513 92.05211748 21.78559579 93.07149058 16.23583984 93.08032227 C14.32254883 93.10835937 14.32254883 93.10835937 12.37060547 93.13696289 C11.05125 93.13760742 9.73189453 93.13825195 8.37255859 93.13891602 C5.74276314 93.14367038 3.11565959 93.16933386 0.48583984 93.20532227 C-0.67520264 93.20604736 -1.83624512 93.20677246 -3.0324707 93.20751953 C-5.93389317 93.33725061 -5.93389317 93.33725061 -7.8347168 94.96264648 C-9.3648461 97.1968313 -9.09043053 98.4965584 -8.68994141 101.13891602 C-8.58166016 101.92395508 -8.47337891 102.70899414 -8.36181641 103.51782227 C-8.02174955 105.62825153 -8.02174955 105.62825153 -6.93994141 107.57641602 C-3.29082123 108.79278941 -0.02479527 108.60674052 3.76318359 108.49829102 C5.31654789 108.47101868 6.86993493 108.44501761 8.42333984 108.42016602 C10.86390602 108.3770482 13.30328143 108.3266173 15.74316406 108.25415039 C18.10418606 108.18708951 20.46392931 108.15265252 22.82568359 108.12329102 C23.54572571 108.09434753 24.26576782 108.06540405 25.00762939 108.0355835 C30.65984219 108.0060719 34.05782653 109.80393189 38.06005859 113.57641602 C40.62953493 117.71299056 40.36954485 122.20965525 40.31005859 126.95141602 C40.30184082 127.7414502 40.29362305 128.53148437 40.28515625 129.34545898 C39.88637687 150.7208912 39.88637687 150.7208912 34.08349609 157.86547852 C27.91962956 163.07739655 22.06707401 165.60400976 14.12255859 166.88891602 C12.63888794 167.13472412 12.63888794 167.13472412 11.12524414 167.38549805 C0.24845118 168.92909323 -10.6607164 168.94890112 -21.62744141 168.95141602 C-23.00366165 168.95427109 -23.00366165 168.95427109 -24.40768433 168.95718384 C-27.04766745 168.95656394 -29.68681775 168.93857953 -32.32666016 168.91235352 C-33.12158875 168.90994156 -33.91651733 168.9075296 -34.73553467 168.90504456 C-38.89527873 168.834728 -42.19712205 168.44433209 -45.93994141 166.57641602 C-45.93994141 165.91641602 -45.93994141 165.25641602 -45.93994141 164.57641602 C-46.53806641 164.47458008 -47.13619141 164.37274414 -47.75244141 164.26782227 C-52.21093982 162.8586183 -54.84116016 158.43150124 -57.14306641 154.54516602 C-66.46293066 136.46184731 -65.43198759 114.12801619 -65.33105469 94.32446289 C-65.31495661 90.57995192 -65.33101315 86.83651985 -65.35009766 83.09204102 C-65.39600566 31.83828002 -65.39600566 31.83828002 -47.93994141 12.57641602 C-47.27994141 12.57641602 -46.61994141 12.57641602 -45.93994141 12.57641602 C-45.93994141 11.91641602 -45.93994141 11.25641602 -45.93994141 10.57641602 C-33.64806553 0.00600679 -15.2992768 -0.10555833 0 0 Z " fill="#880001" transform="translate(849.93994140625,391.423583984375)"/>
<path d="M0 0 C2.76023762 0.02160463 5.51791266 -0.00001205 8.27807617 -0.02539062 C19.09235771 -0.04187895 29.1286797 0.31902214 38.43237305 6.52148438 C38.43237305 7.18148438 38.43237305 7.84148437 38.43237305 8.52148438 C39.32956055 8.76898438 39.32956055 8.76898438 40.24487305 9.02148438 C43.71548155 11.40133021 44.58684033 14.57363736 45.43237305 18.52148438 C46.30410398 26.76616853 45.84966888 34.33688262 41.43237305 41.52148438 C37.50292704 46.19985945 33.39787191 48.2926983 27.43237305 49.52148438 C24.50146229 49.77014897 21.59472309 49.75604308 18.6550293 49.71679688 C17.84368027 49.71396698 17.03233124 49.71113708 16.19639587 49.70822144 C13.62906552 49.697111 11.06209627 49.67202409 8.49487305 49.64648438 C6.74422708 49.63644274 4.99357559 49.62731897 3.24291992 49.61914062 C-1.0273995 49.59720171 -5.2974522 49.56273597 -9.56762695 49.52148438 C-9.56762695 53.81148438 -9.56762695 58.10148437 -9.56762695 62.52148438 C-8.20613525 62.45247925 -8.20613525 62.45247925 -6.81713867 62.38208008 C-3.42930901 62.21816681 -0.04147694 62.06894582 3.34741211 61.92944336 C4.81024039 61.86625668 6.27283297 61.79732909 7.73510742 61.72241211 C9.84476555 61.6153484 11.95442683 61.52938944 14.06518555 61.44726562 C15.33249512 61.38966064 16.59980469 61.33205566 17.90551758 61.27270508 C22.6328213 61.60616226 25.99132264 62.98105118 29.24487305 66.45898438 C32.58886244 72.26696594 31.98891316 79.51616778 30.80737305 85.89648438 C28.95319178 89.43628498 26.90372782 90.57866227 23.43237305 92.52148438 C20.13671875 93.03564453 20.13671875 93.03564453 16.6081543 93.06054688 C15.33262695 93.08375 14.05709961 93.10695313 12.74291992 93.13085938 C10.76388672 93.13859375 10.76388672 93.13859375 8.74487305 93.14648438 C6.11550493 93.16803398 3.48737109 93.20540372 0.8581543 93.24804688 C-0.30288818 93.25400879 -1.46393066 93.2599707 -2.66015625 93.26611328 C-5.76150166 93.30423226 -5.76150166 93.30423226 -8.56762695 95.52148438 C-9.08276803 97.5832547 -9.08276803 97.5832547 -9.00512695 99.89648438 C-9.02446289 100.66734375 -9.04379883 101.43820312 -9.0637207 102.23242188 C-8.35997523 105.47962541 -7.20757047 106.51036073 -4.56762695 108.52148438 C-1.80009795 108.83505605 0.55223772 108.92003325 3.3034668 108.80664062 C4.06281021 108.79386581 4.82215363 108.781091 5.60450745 108.76792908 C8.02715473 108.72576267 10.44798487 108.65738951 12.86987305 108.58398438 C15.28809631 108.5158281 17.70572107 108.45385755 20.12452698 108.41075134 C21.62742727 108.38360794 23.13015697 108.34209293 24.63218689 108.28419495 C29.13905593 108.19806592 31.81246671 108.82429103 35.43237305 111.52148438 C35.98924805 111.93398438 36.54612305 112.34648437 37.11987305 112.77148438 C43.18564461 120.8591798 40.72721427 134.02513187 39.74487305 143.33398438 C38.79585805 149.59358328 37.56731072 154.63868037 33.43237305 159.52148438 C18.63043079 170.23507414 -2.45845867 168.93676389 -19.88012695 169.08398438 C-21.2271167 169.10605453 -21.2271167 169.10605453 -22.60131836 169.12857056 C-34.29002466 169.28909012 -43.87355458 169.13081471 -52.81762695 160.64648438 C-73.75193327 132.59569999 -66.73769014 77.89519008 -62.61450195 45.22851562 C-60.41890236 31.58426307 -55.60911626 18.55756992 -44.31762695 9.89648438 C-43.08894852 9.07211466 -41.83774392 8.28045671 -40.56762695 7.52148438 C-39.85727295 7.04727051 -39.14691895 6.57305664 -38.41503906 6.08447266 C-26.94402783 -0.21214176 -12.72376237 -0.11834999 0 0 Z " fill="#880001" transform="translate(589.567626953125,391.478515625)"/>
<path d="M0 0 C0.93588959 -0.00807175 1.87177917 -0.01614349 2.83602905 -0.02445984 C4.81107772 -0.03823638 6.78614955 -0.04898702 8.76123047 -0.05688477 C10.75869851 -0.06837935 12.75613644 -0.08879097 14.75341797 -0.1184082 C42.1812238 -0.52422547 42.1812238 -0.52422547 50.3984375 6.61328125 C54.39728302 12.61154952 53.31281402 20.00554311 52.9609375 26.92578125 C51.87625785 31.34793676 50.9564732 32.6751803 47.1484375 35.23828125 C42.23859711 36.40642172 37.20744745 37.23828125 32.1484375 37.23828125 C31.79909558 39.67431734 31.46941051 42.11095261 31.1484375 44.55078125 C31.05304688 45.20240234 30.95765625 45.85402344 30.859375 46.52539062 C28.60824796 64.13241995 30.53823662 82.30289463 31.6484375 99.92578125 C31.79349514 102.2961918 31.93802967 104.66663443 32.08203125 107.03710938 C32.43148684 112.77121605 32.78733429 118.50489689 33.1484375 124.23828125 C33.76332031 124.42003906 34.37820313 124.60179687 35.01171875 124.7890625 C35.81996094 125.04042969 36.62820313 125.29179688 37.4609375 125.55078125 C38.26144531 125.79441406 39.06195313 126.03804687 39.88671875 126.2890625 C42.29986918 127.30183548 43.51970636 128.20863167 45.1484375 130.23828125 C46.55846461 134.46836259 46.37284003 138.49421858 46.3984375 142.92578125 C46.4190625 143.79912109 46.4396875 144.67246094 46.4609375 145.57226562 C46.49631303 151.49324437 45.76556335 155.89203542 43.1484375 161.23828125 C34.11342582 169.80782896 16.87997384 168.87194467 5.29101562 168.75976562 C2.62279812 168.7380728 -0.04279452 168.75981961 -2.7109375 168.78515625 C-4.43490168 168.78251643 -6.15886425 168.77739862 -7.8828125 168.76953125 C-8.66628052 168.77762817 -9.44974854 168.7857251 -10.25695801 168.79406738 C-16.63270255 168.68667848 -21.93557355 166.8626713 -26.7265625 162.55078125 C-30.60862869 154.57097852 -31.38423751 144.26130879 -28.7265625 135.80078125 C-27.02765861 131.89009682 -24.67847579 130.15173789 -20.8515625 128.23828125 C-17.9765625 127.48828125 -17.9765625 127.48828125 -15.8515625 127.23828125 C-14.87225295 119.88908337 -14.70588618 112.68620013 -14.71875 105.27734375 C-14.71779327 104.05099213 -14.71683655 102.8246405 -14.71585083 101.56112671 C-14.715173 98.97759957 -14.71699947 96.3940707 -14.72119141 93.81054688 C-14.72653598 89.88277304 -14.72123757 85.95511402 -14.71484375 82.02734375 C-14.71550478 79.50651017 -14.71678646 76.98567665 -14.71875 74.46484375 C-14.71672577 73.30304596 -14.71470154 72.14124817 -14.71261597 70.94424438 C-14.73018878 64.74890077 -14.9823489 58.66102712 -15.62794495 52.49806213 C-15.89088817 49.84087324 -15.9527452 47.2198878 -15.9140625 44.55078125 C-15.90503906 43.72191406 -15.89601563 42.89304687 -15.88671875 42.0390625 C-15.87511719 41.44480469 -15.86351562 40.85054688 -15.8515625 40.23828125 C-19.19541646 38.67781607 -22.29840991 37.98655455 -25.9140625 37.42578125 C-29.47216063 36.74804827 -30.64752025 36.42241694 -33.4140625 33.92578125 C-36.92690374 27.35829545 -36.88704213 18.43090264 -35.0390625 11.30078125 C-33.87314553 8.29394275 -33.07601298 6.54268027 -30.8515625 4.23828125 C-27.7421875 3.2265625 -27.7421875 3.2265625 -24.1015625 2.55078125 C-22.91046875 2.32003906 -21.719375 2.08929688 -20.4921875 1.8515625 C-13.59203693 0.68919808 -6.98692773 0.05828333 0 0 Z " fill="#880001" transform="translate(315.8515625,391.76171875)"/>
<path d="M0 0 C2.82197835 0.01397504 5.64069576 -0.02049566 8.46240234 -0.05834961 C18.57074251 -0.10121911 28.1875147 0.04933844 37.06005859 5.57641602 C37.55505859 7.06141602 37.55505859 7.06141602 38.06005859 8.57641602 C38.67880859 8.82391602 39.29755859 9.07141602 39.93505859 9.32641602 C42.50696299 10.83930095 43.47015154 12.42688299 44.51708984 15.19750977 C46.33945458 23.18182719 45.98760519 31.91349524 42.52490234 39.38110352 C39.39935991 44.06524978 34.99803353 47.93689757 29.42431641 49.15014648 C25.54071691 49.6422194 21.72405646 49.7015165 17.81787109 49.67407227 C17.04949921 49.67265732 16.28112732 49.67124237 15.48947144 49.66978455 C13.05462621 49.66422285 10.61987565 49.65167762 8.18505859 49.63891602 C6.52620576 49.63389606 4.86735148 49.62933402 3.20849609 49.62524414 C-0.84101911 49.61426599 -4.89046425 49.59702808 -8.93994141 49.57641602 C-10.2622333 52.2209998 -10.03671335 54.25402903 -10.00244141 57.20141602 C-9.99341797 58.20430664 -9.98439453 59.20719727 -9.97509766 60.24047852 C-9.96349609 61.01133789 -9.95189453 61.78219727 -9.93994141 62.57641602 C-4.73479024 62.67803502 0.37723597 62.6013524 5.56005859 62.07641602 C21.0495045 60.61060687 21.0495045 60.61060687 28.06005859 65.57641602 C31.51451722 69.03087464 31.21776765 72.78907229 31.24755859 77.51391602 C31.26173828 78.53356445 31.27591797 79.55321289 31.29052734 80.60375977 C31.04159906 83.8145127 30.66685691 85.78178398 29.06005859 88.57641602 C24.69438513 92.05211748 21.78559579 93.07149058 16.23583984 93.08032227 C14.32254883 93.10835937 14.32254883 93.10835937 12.37060547 93.13696289 C11.05125 93.13760742 9.73189453 93.13825195 8.37255859 93.13891602 C5.74276314 93.14367038 3.11565959 93.16933386 0.48583984 93.20532227 C-0.67520264 93.20604736 -1.83624512 93.20677246 -3.0324707 93.20751953 C-5.93389317 93.33725061 -5.93389317 93.33725061 -7.8347168 94.96264648 C-9.3648461 97.1968313 -9.09043053 98.4965584 -8.68994141 101.13891602 C-8.58166016 101.92395508 -8.47337891 102.70899414 -8.36181641 103.51782227 C-8.02174955 105.62825153 -8.02174955 105.62825153 -6.93994141 107.57641602 C-3.29082123 108.79278941 -0.02479527 108.60674052 3.76318359 108.49829102 C5.31654789 108.47101868 6.86993493 108.44501761 8.42333984 108.42016602 C10.86390602 108.3770482 13.30328143 108.3266173 15.74316406 108.25415039 C18.10418606 108.18708951 20.46392931 108.15265252 22.82568359 108.12329102 C23.54572571 108.09434753 24.26576782 108.06540405 25.00762939 108.0355835 C30.65984219 108.0060719 34.05782653 109.80393189 38.06005859 113.57641602 C40.62953493 117.71299056 40.36954485 122.20965525 40.31005859 126.95141602 C40.30184082 127.7414502 40.29362305 128.53148437 40.28515625 129.34545898 C39.88637687 150.7208912 39.88637687 150.7208912 34.08349609 157.86547852 C27.91962956 163.07739655 22.06707401 165.60400976 14.12255859 166.88891602 C12.63888794 167.13472412 12.63888794 167.13472412 11.12524414 167.38549805 C0.24845118 168.92909323 -10.6607164 168.94890112 -21.62744141 168.95141602 C-23.00366165 168.95427109 -23.00366165 168.95427109 -24.40768433 168.95718384 C-27.04766745 168.95656394 -29.68681775 168.93857953 -32.32666016 168.91235352 C-33.12158875 168.90994156 -33.91651733 168.9075296 -34.73553467 168.90504456 C-38.89527873 168.834728 -42.19712205 168.44433209 -45.93994141 166.57641602 C-45.93994141 165.91641602 -45.93994141 165.25641602 -45.93994141 164.57641602 C-46.53806641 164.47458008 -47.13619141 164.37274414 -47.75244141 164.26782227 C-52.21093982 162.8586183 -54.84116016 158.43150124 -57.14306641 154.54516602 C-66.46293066 136.46184731 -65.43198759 114.12801619 -65.33105469 94.32446289 C-65.31495661 90.57995192 -65.33101315 86.83651985 -65.35009766 83.09204102 C-65.39600566 31.83828002 -65.39600566 31.83828002 -47.93994141 12.57641602 C-47.27994141 12.57641602 -46.61994141 12.57641602 -45.93994141 12.57641602 C-45.93994141 11.91641602 -45.93994141 11.25641602 -45.93994141 10.57641602 C-33.64806553 0.00600679 -15.2992768 -0.10555833 0 0 Z M-49.93994141 18.57641602 C-53.78547919 23.30303167 -55.70030394 28.23176046 -57.26416016 34.08422852 C-57.93994141 36.57641602 -57.93994141 36.57641602 -58.91259766 39.29467773 C-63.02921139 52.44475421 -62.2265689 66.96205651 -62.12744141 80.57641602 C-62.11856058 82.58699469 -62.10985409 84.59757413 -62.10131836 86.6081543 C-63.24531946 124.29956346 -63.24531946 124.29956346 -49.93994141 158.57641602 C-49.60994141 159.56641602 -49.27994141 160.55641602 -48.93994141 161.57641602 C-35.5469192 171.92556954 -6.72104679 167.11751256 9.37646484 165.26782227 C18.14262556 164.08024023 26.91850166 162.36445263 33.06005859 155.57641602 C35.76836202 151.0484966 36.42864614 147.74865574 36.38818359 142.49829102 C36.38537384 141.51931854 36.38537384 141.51931854 36.38250732 140.52056885 C36.3758282 139.1524132 36.36199692 137.78427529 36.34130859 136.41625977 C36.30993908 134.31842379 36.30031048 132.22133918 36.29443359 130.12329102 C36.6110959 123.65422404 36.6110959 123.65422404 35.06005859 117.57641602 C34.40005859 117.57641602 33.74005859 117.57641602 33.06005859 117.57641602 C32.95693359 116.95766602 32.85380859 116.33891602 32.74755859 115.70141602 C32.18480486 113.21115118 32.18480486 113.21115118 29.06005859 111.57641602 C25.63579277 111.29469705 25.63579277 111.29469705 21.81005859 111.38891602 C19.88419922 111.39858398 19.88419922 111.39858398 17.91943359 111.40844727 C14.23143356 111.56895739 10.70825887 112.03547597 7.06005859 112.57641602 C5.02097357 112.70862602 2.97817454 112.79440898 0.93505859 112.82641602 C-0.05751953 112.85219727 -1.05009766 112.87797852 -2.07275391 112.90454102 C-5.45890259 112.51702536 -7.24598798 111.64581968 -9.93994141 109.57641602 C-12.15617597 106.44839726 -12.18331446 103.7203075 -12.12744141 99.95141602 C-12.12099609 98.98977539 -12.11455078 98.02813477 -12.10791016 97.03735352 C-11.93994141 94.57641602 -11.93994141 94.57641602 -10.93994141 92.57641602 C-8.46476148 91.93458896 -6.0800839 91.43658692 -3.56494141 91.01391602 C-2.81849365 90.88388184 -2.0720459 90.75384766 -1.30297852 90.61987305 C5.44018 89.52427552 12.16688241 89.09780866 18.98925781 88.8671875 C23.15828367 88.83618174 23.15828367 88.83618174 27.06005859 87.57641602 C29.19941266 84.30312869 29.35796248 81.49715424 29.37255859 77.63891602 C29.39769531 76.10944336 29.39769531 76.10944336 29.42333984 74.54907227 C29.00411409 71.11863357 28.16221613 69.30495006 26.06005859 66.57641602 C22.4399294 64.10061127 19.06302324 64.36074237 14.77490234 64.41625977 C14.07740372 64.42146133 13.37990509 64.4266629 12.66127014 64.43202209 C10.4398177 64.44978402 8.21883331 64.48094942 5.99755859 64.51391602 C3.77275953 64.54156671 1.54802707 64.56627294 -0.67686462 64.58509827 C-2.69309214 64.60292422 -4.70922817 64.63032828 -6.7253418 64.65820312 C-9.93994141 64.57641602 -9.93994141 64.57641602 -12.93994141 63.57641602 C-12.93994141 58.62641602 -12.93994141 53.67641602 -12.93994141 48.57641602 C-8.8736259 47.55983714 -5.28082425 47.48356325 -1.13916016 47.54907227 C0.41096779 47.56172287 1.96109812 47.57408351 3.51123047 47.58618164 C5.94026236 47.61093517 8.36916804 47.63886926 10.7980957 47.67236328 C13.1523514 47.70277012 15.50644909 47.7204046 17.86083984 47.73657227 C18.5777449 47.75003189 19.29464996 47.76349152 20.03327942 47.77735901 C24.79650766 47.8007754 28.59009214 47.05763804 33.06005859 45.57641602 C33.06005859 44.91641602 33.06005859 44.25641602 33.06005859 43.57641602 C33.96498047 43.46813477 33.96498047 43.46813477 34.88818359 43.35766602 C37.88698327 42.2789611 38.40196272 40.89260776 39.81005859 38.07641602 C42.16904398 32.99663767 42.63666685 29.08401901 42.06005859 23.57641602 C42.02654297 22.86227539 41.99302734 22.14813477 41.95849609 21.41235352 C41.61992772 16.65457684 40.48554851 13.89810321 37.06005859 10.57641602 C36.40005859 10.57641602 35.74005859 10.57641602 35.06005859 10.57641602 C35.06005859 9.91641602 35.06005859 9.25641602 35.06005859 8.57641602 C33.51931051 7.94915494 31.97740936 7.32472591 30.43505859 6.70141602 C29.57654297 6.35336914 28.71802734 6.00532227 27.83349609 5.64672852 C22.30830369 3.51447117 17.82832441 2.31707878 11.85302734 2.27563477 C11.17444168 2.27008072 10.49585602 2.26452667 9.79670715 2.25880432 C7.61343546 2.24706588 5.43082946 2.25325715 3.24755859 2.26391602 C2.50562256 2.26540649 1.76368652 2.26689697 0.99926758 2.26843262 C-18.73891021 2.34006396 -35.70087671 3.5393652 -49.93994141 18.57641602 Z " fill="#650000" transform="translate(849.93994140625,391.423583984375)"/>
<path d="M0 0 C7.90639974 6.94804826 9.66797552 15.6934013 11.8125 25.5625 C13.95552822 35.12427997 16.22882977 44.63927446 18.6875 54.125 C18.96432617 55.20168945 19.24115234 56.27837891 19.52636719 57.38769531 C20.3478046 60.53637671 21.19743101 63.67553753 22.0625 66.8125 C22.37928711 67.98087402 22.69607422 69.14924805 23.02246094 70.35302734 C23.3527832 71.50883301 23.68310547 72.66463867 24.0234375 73.85546875 C24.31782715 74.90114014 24.6122168 75.94681152 24.91552734 77.02416992 C26.16644544 80.06519496 27.60011183 81.67211643 30.0625 83.8125 C32.29270692 79.65280774 33.10176752 75.60082255 34 71 C34.17329834 70.1227124 34.34659668 69.2454248 34.52514648 68.34155273 C36.70411079 56.93840664 38.01734271 45.41417326 39.41699219 33.89501953 C39.76479729 31.07398667 40.13079571 28.25580144 40.5 25.4375 C40.59804932 24.60033447 40.69609863 23.76316895 40.79711914 22.90063477 C41.72955343 15.92389021 43.52820419 8.67701168 49 3.875 C55.97436424 -0.82202081 62.18071444 -0.55376874 70.375 -0.5625 C71.57318359 -0.58699219 72.77136719 -0.61148437 74.00585938 -0.63671875 C82.55195099 -0.66497029 88.24777215 0.2143813 94.5390625 6.1484375 C98.56792481 13.19378134 96.21240028 23.19978479 94.625 30.828125 C93.96529759 34.32821276 93.57001529 37.83683831 93.1875 41.375 C91.03968738 60.50470566 87.74997803 79.43773915 83.80273438 98.27197266 C83.12044845 101.53533365 82.44837467 104.80059246 81.77909851 108.06663513 C81.17470784 111.00846657 80.56392544 113.94894709 79.9515686 116.88912964 C79.65592816 118.31202789 79.3620563 119.73529503 79.07015991 121.15896606 C72.80918026 151.62150275 72.80918026 151.62150275 60.0625 160.0625 C47.19147318 167.45061483 32.76324432 170.11837238 18.12890625 167.234375 C16.00455744 166.56088836 14.06570215 165.78280104 12.0625 164.8125 C10.99 164.35875 9.9175 163.905 8.8125 163.4375 C0.53456523 158.54599309 -3.39683244 150.26317356 -7.3125 141.875 C-7.7053418 141.03960693 -8.09818359 140.20421387 -8.50292969 139.34350586 C-11.42834351 133.05722042 -14.0891395 126.70457137 -16.59765625 120.2421875 C-17.87799738 116.96481283 -19.23856862 113.73363522 -20.625 110.5 C-22.41031643 106.23791126 -23.87064984 102.00158954 -25.12890625 97.55859375 C-26.11976251 94.19351186 -27.24721679 90.8841472 -28.375 87.5625 C-33.43426062 72.56914065 -37.11938096 57.29712702 -40.48242188 41.85351562 C-40.84548858 40.22516922 -41.23810026 38.60341894 -41.640625 36.984375 C-43.47476535 29.28098551 -45.05101134 18.93818106 -41.9453125 11.40625 C-36.48841392 4.37702471 -26.17796307 0.84004178 -17.75 -0.8125 C-5.09017176 -2.05772901 -5.09017176 -2.05772901 0 0 Z M-35.9375 8.8125 C-35.9375 9.8025 -35.9375 10.7925 -35.9375 11.8125 C-36.9275 12.1425 -37.9175 12.4725 -38.9375 12.8125 C-41.46526399 20.39579197 -40.31693812 29.99568396 -38.9375 37.8125 C-38.6075 38.1425 -38.2775 38.4725 -37.9375 38.8125 C-37.69128249 40.93726592 -37.55437326 43.061112 -37.4140625 45.1953125 C-37.00472486 48.00376438 -37.00472486 48.00376438 -35.48828125 51.16015625 C-33.91552028 54.86426583 -33.17278243 58.16770207 -32.5 62.125 C-31.35293758 68.41369223 -29.47158002 73.96384331 -26.9375 79.8125 C-24.43053586 86.3559064 -23.03577805 92.89980873 -21.9375 99.8125 C-21.2775 99.8125 -20.6175 99.8125 -19.9375 99.8125 C-19.76734375 100.46734375 -19.5971875 101.1221875 -19.421875 101.796875 C-16.39594671 114.4367094 -16.39594671 114.4367094 -10.8125 126 C-9.01325802 128.69886297 -8.61407753 129.88181105 -8.078125 132.94921875 C-7.04408127 137.88760019 -5.19899055 142.01329429 -2.8125 146.4375 C-2.41361572 147.1795166 -2.01473145 147.9215332 -1.60375977 148.68603516 C2.67808816 156.34400441 7.24101668 161.19185543 15.65649414 164.21484375 C20.45957794 165.40793854 25.33085128 165.20012445 30.25 165.125 C31.31669922 165.12822266 32.38339844 165.13144531 33.48242188 165.13476562 C41.5227005 165.07945414 46.8742614 163.00964214 54.0625 159.5 C54.66578125 159.21705078 55.2690625 158.93410156 55.890625 158.64257812 C62.00602375 155.6447033 65.81205926 151.72239226 69.0625 145.8125 C69.55492187 145.06097656 70.04734375 144.30945313 70.5546875 143.53515625 C72.19211384 140.57845636 72.87503267 138.05229844 73.5625 134.75 C74.47814146 130.49131341 75.44738001 126.27323954 76.5625 122.0625 C78.13774816 115.8271427 79.22798099 109.53885662 80.3046875 103.203125 C81.03819066 98.89403334 81.85922622 94.60418711 82.6875 90.3125 C83.48969521 86.13614369 84.21643181 81.98620704 84.625 77.75 C85.0625 73.8125 85.0625 73.8125 86.02734375 70.62109375 C87.18193767 66.37305953 87.65756891 62.30651764 88.0625 57.9375 C88.68842092 51.75472958 89.55280167 45.85129332 91.0625 39.8125 C92.25162449 33.98488228 92.508042 28.11329228 92.8125 22.1875 C92.88082031 21.15109375 92.94914063 20.1146875 93.01953125 19.046875 C93.06980469 18.04914063 93.12007812 17.05140625 93.171875 16.0234375 C93.24873535 14.66677979 93.24873535 14.66677979 93.32714844 13.28271484 C93.00355893 10.26234709 92.20218873 8.9441074 90.0625 6.8125 C89.0725 6.8125 88.0825 6.8125 87.0625 6.8125 C87.0625 5.8225 87.0625 4.8325 87.0625 3.8125 C81.58273131 2.57662416 76.28180606 2.62852286 70.6875 2.625 C69.16382813 2.60663086 69.16382813 2.60663086 67.609375 2.58789062 C60.76967907 2.57456654 54.96487781 2.63571664 49.3125 6.875 C43.0700001 15.02493042 42.80785153 26.25066938 41.5 36.125 C41.08495396 39.18399543 40.66540729 42.24236835 40.24609375 45.30078125 C40.14585403 46.03914215 40.04561432 46.77750305 39.94233704 47.53823853 C39.22397191 52.78632442 38.38510849 58.00643204 37.48901367 63.22729492 C36.76950978 67.58838633 36.2705893 71.96888361 35.76367188 76.359375 C35.38066119 79.57539864 34.96085278 82.69609034 34.0625 85.8125 C31.4225 86.1425 28.7825 86.4725 26.0625 86.8125 C26.0625 85.8225 26.0625 84.8325 26.0625 83.8125 C25.4025 83.8125 24.7425 83.8125 24.0625 83.8125 C23.95292969 83.24402344 23.84335937 82.67554688 23.73046875 82.08984375 C22.6839806 76.99353153 21.15913857 72.59283594 19.0625 67.8125 C16.58608902 61.0504866 15.31174153 54.1495223 14.24023438 47.05322266 C13.54647319 42.70707256 12.42765513 38.85544423 10.80273438 34.76806641 C9.6346114 31.68209508 8.86836762 28.50910823 8.0625 25.3125 C6.31478279 18.54533228 4.40994445 11.99239744 1.0625 5.8125 C-0.5875 6.1425 -2.2375 6.4725 -3.9375 6.8125 C-3.2775 5.4925 -2.6175 4.1725 -1.9375 2.8125 C-4.46088447 0.28911553 -5.3784983 0.51504951 -8.875 0.5 C-18.90182311 0.70943756 -27.23613889 4.03713262 -35.9375 8.8125 Z " fill="#640000" transform="translate(418.9375,396.1875)"/>
<path d="M0 0 C2.76023762 0.02160463 5.51791266 -0.00001205 8.27807617 -0.02539062 C19.09235771 -0.04187895 29.1286797 0.31902214 38.43237305 6.52148438 C38.43237305 7.18148438 38.43237305 7.84148437 38.43237305 8.52148438 C39.32956055 8.76898438 39.32956055 8.76898438 40.24487305 9.02148438 C43.71548155 11.40133021 44.58684033 14.57363736 45.43237305 18.52148438 C46.30410398 26.76616853 45.84966888 34.33688262 41.43237305 41.52148438 C37.50292704 46.19985945 33.39787191 48.2926983 27.43237305 49.52148438 C24.50146229 49.77014897 21.59472309 49.75604308 18.6550293 49.71679688 C17.84368027 49.71396698 17.03233124 49.71113708 16.19639587 49.70822144 C13.62906552 49.697111 11.06209627 49.67202409 8.49487305 49.64648438 C6.74422708 49.63644274 4.99357559 49.62731897 3.24291992 49.61914062 C-1.0273995 49.59720171 -5.2974522 49.56273597 -9.56762695 49.52148438 C-9.56762695 53.81148438 -9.56762695 58.10148437 -9.56762695 62.52148438 C-8.20613525 62.45247925 -8.20613525 62.45247925 -6.81713867 62.38208008 C-3.42930901 62.21816681 -0.04147694 62.06894582 3.34741211 61.92944336 C4.81024039 61.86625668 6.27283297 61.79732909 7.73510742 61.72241211 C9.84476555 61.6153484 11.95442683 61.52938944 14.06518555 61.44726562 C15.33249512 61.38966064 16.59980469 61.33205566 17.90551758 61.27270508 C22.6328213 61.60616226 25.99132264 62.98105118 29.24487305 66.45898438 C32.58886244 72.26696594 31.98891316 79.51616778 30.80737305 85.89648438 C28.95319178 89.43628498 26.90372782 90.57866227 23.43237305 92.52148438 C20.13671875 93.03564453 20.13671875 93.03564453 16.6081543 93.06054688 C15.33262695 93.08375 14.05709961 93.10695313 12.74291992 93.13085938 C10.76388672 93.13859375 10.76388672 93.13859375 8.74487305 93.14648438 C6.11550493 93.16803398 3.48737109 93.20540372 0.8581543 93.24804688 C-0.30288818 93.25400879 -1.46393066 93.2599707 -2.66015625 93.26611328 C-5.76150166 93.30423226 -5.76150166 93.30423226 -8.56762695 95.52148438 C-9.08276803 97.5832547 -9.08276803 97.5832547 -9.00512695 99.89648438 C-9.02446289 100.66734375 -9.04379883 101.43820312 -9.0637207 102.23242188 C-8.35997523 105.47962541 -7.20757047 106.51036073 -4.56762695 108.52148438 C-1.80009795 108.83505605 0.55223772 108.92003325 3.3034668 108.80664062 C4.06281021 108.79386581 4.82215363 108.781091 5.60450745 108.76792908 C8.02715473 108.72576267 10.44798487 108.65738951 12.86987305 108.58398438 C15.28809631 108.5158281 17.70572107 108.45385755 20.12452698 108.41075134 C21.62742727 108.38360794 23.13015697 108.34209293 24.63218689 108.28419495 C29.13905593 108.19806592 31.81246671 108.82429103 35.43237305 111.52148438 C35.98924805 111.93398438 36.54612305 112.34648437 37.11987305 112.77148438 C43.18564461 120.8591798 40.72721427 134.02513187 39.74487305 143.33398438 C38.79585805 149.59358328 37.56731072 154.63868037 33.43237305 159.52148438 C18.63043079 170.23507414 -2.45845867 168.93676389 -19.88012695 169.08398438 C-21.2271167 169.10605453 -21.2271167 169.10605453 -22.60131836 169.12857056 C-43.44484111 169.41481208 -43.44484111 169.41481208 -51.48291016 161.67797852 C-54.71777844 158.16901108 -57.47047217 154.65888962 -57.69262695 149.77148438 C-57.65137695 149.02898437 -57.61012695 148.28648437 -57.56762695 147.52148438 C-55.98362087 149.53749212 -54.63676438 151.37024625 -53.56762695 153.70898438 C-52.64032836 155.87385249 -52.64032836 155.87385249 -49.56762695 156.52148438 C-49.50575195 157.30523438 -49.44387695 158.08898437 -49.38012695 158.89648438 C-48.84745247 161.68564714 -48.84745247 161.68564714 -46.44262695 162.70898438 C-45.49387695 162.97710938 -44.54512695 163.24523437 -43.56762695 163.52148438 C-41.95537231 164.03340332 -41.95537231 164.03340332 -40.31054688 164.55566406 C-36.6360886 165.50381858 -33.58802429 165.77959079 -29.8059082 165.78710938 C-27.89467163 165.79387695 -27.89467163 165.79387695 -25.94482422 165.80078125 C-24.5899139 165.79272304 -23.23501295 165.7829226 -21.88012695 165.77148438 C-20.84576004 165.76483765 -20.84576004 165.76483765 -19.79049683 165.75805664 C6.68178211 166.01469213 6.68178211 166.01469213 30.43237305 155.52148438 C31.84360047 153.09102926 31.84360047 153.09102926 32.43237305 150.52148438 C32.70178711 149.84988281 32.97120117 149.17828125 33.2487793 148.48632812 C35.55875185 142.20949172 36.15889369 136.17614866 36.43237305 129.52148438 C36.48522461 128.43480469 36.53807617 127.348125 36.5925293 126.22851562 C36.95978369 120.49723848 36.95978369 120.49723848 35.10424805 115.24023438 C33.44400202 113.27006346 33.44400202 113.27006346 30.43237305 112.52148438 C27.84266012 112.49588891 25.28099317 112.52586433 22.6940918 112.59960938 C21.13617005 112.62687619 19.57822574 112.65287791 18.02026367 112.67773438 C15.57083359 112.72090046 13.12258159 112.77140435 10.67382812 112.84375 C8.3054007 112.91067499 5.93824473 112.94521064 3.5690918 112.97460938 C2.8438884 113.00355286 2.118685 113.03249634 1.37150574 113.06231689 C-2.51570766 113.08261077 -5.00785066 112.5639614 -8.01367188 110.18066406 C-11.26515386 106.79521891 -11.70769155 104.54086293 -11.69262695 100.02148438 C-11.69649414 98.86132812 -11.69649414 98.86132812 -11.70043945 97.67773438 C-11.56762695 95.52148438 -11.56762695 95.52148438 -10.56762695 92.52148438 C-3.67025542 89.00615734 3.05495041 89.01566285 10.68237305 88.89648438 C13.00016429 88.8454317 15.3178821 88.79089384 17.63549805 88.73242188 C18.65289063 88.7148584 19.6702832 88.69729492 20.71850586 88.67919922 C23.10900323 88.54027683 25.1457131 88.20121006 27.43237305 87.52148438 C27.51376447 85.12495909 27.57304313 82.73123001 27.61987305 80.33398438 C27.64500977 79.66044922 27.67014648 78.98691406 27.69604492 78.29296875 C27.76134028 73.83111948 27.33574367 70.96648162 24.43237305 67.52148438 C20.37107289 65.41869308 17.01546734 65.32112558 12.48706055 65.43164062 C11.14982437 65.45204706 9.81258464 65.47222252 8.4753418 65.4921875 C6.3838732 65.53579056 4.29265305 65.5843615 2.20141602 65.63793945 C0.17163966 65.68617694 -1.85779912 65.71605829 -3.88793945 65.74414062 C-5.70189209 65.78680054 -5.70189209 65.78680054 -7.55249023 65.83032227 C-10.56762695 65.52148438 -10.56762695 65.52148438 -12.42260742 64.19506836 C-14.97342085 60.46674724 -15.01242533 56.89533506 -14.56762695 52.52148438 C-12.79159397 49.54596643 -10.71252318 47.09393249 -7.56762695 45.52148438 C-1.25093265 45.21728097 4.95280842 45.39448579 11.21362305 46.28320312 C19.94318933 47.22070936 28.99729631 47.87670485 36.43237305 42.52148438 C42.43500849 35.16825596 42.36052676 26.70773221 41.75805664 17.60986328 C41.15114551 13.71817077 39.24283652 11.46074412 36.4519043 8.83398438 C25.95540228 2.0122732 9.77450226 4.25561593 -2.38012695 3.95898438 C-4.05526498 3.91566604 -5.7303953 3.87204818 -7.40551758 3.828125 C-11.45947357 3.72246669 -15.51351162 3.62083272 -19.56762695 3.52148438 C-19.56762695 4.18148438 -19.56762695 4.84148437 -19.56762695 5.52148438 C-20.2224707 5.5240625 -20.87731445 5.52664063 -21.55200195 5.52929688 C-31.9853245 5.97138681 -40.22603041 9.67249839 -47.56762695 17.14648438 C-52.008769 22.46944163 -53.77217789 27.9229812 -55.56762695 34.52148438 C-56.11105912 35.98702995 -56.67128475 37.44656346 -57.25512695 38.89648438 C-59.62673169 45.4466308 -59.83734059 51.96188358 -60.11450195 58.85742188 C-60.15613464 59.86485443 -60.19776733 60.87228699 -60.24066162 61.9102478 C-60.64070249 72.28496813 -60.78825438 82.65620798 -60.80786133 93.03808594 C-60.81764619 96.15260771 -60.84888561 99.26648838 -60.88012695 102.38085938 C-60.94031619 114.24117224 -60.16696908 125.59344096 -58.21508789 137.29638672 C-57.69968047 140.40981797 -57.41459068 143.35524444 -57.56762695 146.52148438 C-60.56762695 144.52148438 -60.56762695 144.52148438 -61.2277832 142.29882812 C-61.5118884 140.29354191 -61.78824929 138.28715116 -62.05908203 136.2800293 C-62.39011674 133.83342374 -62.73177559 131.3882245 -63.08569336 128.94482422 C-64.72295659 116.68913403 -64.92324826 104.56166379 -64.88012695 92.20898438 C-64.87863647 91.15576996 -64.877146 90.10255554 -64.87561035 89.01742554 C-64.84356664 76.41002047 -64.6477818 63.87910101 -63.31762695 51.33398438 C-63.20845947 50.29395264 -63.09929199 49.2539209 -62.98681641 48.18237305 C-61.21874905 34.1549324 -56.90843288 21.31120134 -46.38012695 11.47851562 C-44.48859745 10.02762652 -42.61265369 8.74351255 -40.56762695 7.52148438 C-39.85727295 7.04727051 -39.14691895 6.57305664 -38.41503906 6.08447266 C-26.94402783 -0.21214176 -12.72376237 -0.11834999 0 0 Z " fill="#620000" transform="translate(589.567626953125,391.478515625)"/>
<path d="M0 0 C0.92554688 -0.02900391 1.85109375 -0.05800781 2.8046875 -0.08789062 C8.98541296 -0.14463457 13.76572352 0.66989738 18.875 4.3125 C22.15175909 8.17739534 23.39626863 11.28582059 23.875 16.3125 C26.8469385 15.18798273 29.20940687 14.08956209 31.875 12.3125 C32.865 12.3125 33.855 12.3125 34.875 12.3125 C34.875 11.6525 34.875 10.9925 34.875 10.3125 C46.76143168 4.42187899 58.33404402 1.73895266 71.4375 5.2734375 C74.4016657 6.43687254 77.10812891 7.741406 79.875 9.3125 C80.54789063 9.6734375 81.22078125 10.034375 81.9140625 10.40625 C89.77363639 15.25356429 94.64351077 24.14335221 97.21484375 32.78125 C99.7534643 46.36061675 98.67945645 60.58953579 91.5 72.625 C90.6375437 73.86300033 89.76258879 75.0923927 88.875 76.3125 C88.26591797 77.27542969 88.26591797 77.27542969 87.64453125 78.2578125 C81.52009405 87.41752796 71.56865564 93.44119325 61.875 98.3125 C61.76959074 100.52331851 61.76959074 100.52331851 62.875 103.3125 C64.53484798 103.99596682 66.20336805 104.65838315 67.875 105.3125 C70.32568173 106.82451482 72.73127408 108.38500004 74.875 110.3125 C74.875 110.9725 74.875 111.6325 74.875 112.3125 C75.431875 112.539375 75.98875 112.76625 76.5625 113 C82.57432451 116.41211661 87.7865533 123.1356066 90.875 129.3125 C92.14130394 138.25677337 89.63603534 144.79863855 84.875 152.3125 C82.3125 155.3125 82.3125 155.3125 79.875 157.3125 C79.00875 158.055 78.1425 158.7975 77.25 159.5625 C72.81523295 162.83022309 68.19784181 162.97899649 62.875 162.3125 C59.625 160.5625 59.625 160.5625 56.875 158.3125 C56.10027344 157.73886719 55.32554687 157.16523437 54.52734375 156.57421875 C51.47333518 153.96999053 49.10396303 151.05159996 46.6875 147.875 C46.21554199 147.2660791 45.74358398 146.6571582 45.25732422 146.02978516 C42.8515239 142.9196525 40.47640144 139.7871676 38.11328125 136.64453125 C37.67330811 136.0630835 37.23333496 135.48163574 36.7800293 134.88256836 C35.56837103 133.27803978 34.365933 131.66656064 33.1640625 130.0546875 C30.93506454 127.38445445 28.66564072 125.37343255 25.875 123.3125 C25.85518066 123.94639648 25.83536133 124.58029297 25.81494141 125.23339844 C24.7771876 156.8017547 24.7771876 156.8017547 20.0625 162 C11.73329494 168.04275661 -3.59405679 166.06898326 -13.375 164.625 C-18.7506338 163.41652418 -23.1355528 161.35688155 -26.22106934 156.63522339 C-28.94315714 151.30297745 -30.341431 146.14555727 -31.34375 140.2578125 C-31.59602356 138.77717819 -31.59602356 138.77717819 -31.85339355 137.26663208 C-33.73676325 124.98609281 -33.73034774 112.64927897 -33.64648438 100.25390625 C-33.62383315 96.88281801 -33.63717511 93.51300369 -33.66025543 90.14196014 C-33.80258841 65.53106416 -32.08327528 40.77524686 -24.125 17.3125 C-23.81949219 16.37535156 -23.51398437 15.43820312 -23.19921875 14.47265625 C-18.98104372 3.30471266 -11.03361611 0.11243495 0 0 Z M-16.8125 7.8125 C-26.15119507 20.35564925 -27.71095763 40.61068843 -29.375 55.8125 C-29.45938324 56.56131439 -29.54376648 57.31012878 -29.63070679 58.08163452 C-31.06159481 71.09569123 -31.47639923 84.03810323 -31.4375 97.125 C-31.43504272 97.97932617 -31.43258545 98.83365234 -31.43005371 99.71386719 C-32.09089313 118.43896101 -32.09089313 118.43896101 -28.125 136.3125 C-27.8490522 138.24153132 -27.64050097 140.1814032 -27.5 142.125 C-27.42523437 143.10082031 -27.35046875 144.07664062 -27.2734375 145.08203125 C-27.22445312 145.81808594 -27.17546875 146.55414062 -27.125 147.3125 C-26.465 147.3125 -25.805 147.3125 -25.125 147.3125 C-25.00125 148.01375 -24.8775 148.715 -24.75 149.4375 C-24.54375 150.38625 -24.3375 151.335 -24.125 152.3125 C-23.815625 153.8284375 -23.815625 153.8284375 -23.5 155.375 C-21.68218774 159.258508 -19.02629338 160.86068281 -15.125 162.3125 C-8.79266898 163.6433333 -2.56311385 163.46398503 3.875 163.3125 C4.80570313 163.30734375 5.73640625 163.3021875 6.6953125 163.296875 C11.90128384 163.07398938 15.75835771 162.17374373 19.48413086 158.3503418 C23.8189228 151.99919061 21.99935521 140.54286752 21.9375 133.125 C21.93298828 132.07763672 21.92847656 131.03027344 21.92382812 129.95117188 C21.91220124 127.40488464 21.89586281 124.8587254 21.875 122.3125 C28.5859375 122.0625 28.5859375 122.0625 31.1875 124.3125 C32.0228125 125.3025 32.0228125 125.3025 32.875 126.3125 C33.535 126.3125 34.195 126.3125 34.875 126.3125 C34.875 126.9725 34.875 127.6325 34.875 128.3125 C35.535 128.6425 36.195 128.9725 36.875 129.3125 C37.205 130.3025 37.535 131.2925 37.875 132.3125 C38.535 132.3125 39.195 132.3125 39.875 132.3125 C40.205 133.6325 40.535 134.9525 40.875 136.3125 C41.535 136.3125 42.195 136.3125 42.875 136.3125 C42.9884375 136.89644531 43.101875 137.48039063 43.21875 138.08203125 C45.39979636 145.4949924 53.08517215 152.5482988 58.875 157.3125 C59.865 157.3125 60.855 157.3125 61.875 157.3125 C61.875 157.9725 61.875 158.6325 61.875 159.3125 C64.12012262 160.43506131 65.38956649 160.44663762 67.875 160.4375 C68.926875 160.44136719 68.926875 160.44136719 70 160.4453125 C71.96653775 160.42627236 71.96653775 160.42627236 73.875 159.3125 C73.875 158.6525 73.875 157.9925 73.875 157.3125 C74.57625 157.126875 75.2775 156.94125 76 156.75 C81.62486463 153.93756769 85.81804488 148.03833162 88.0625 142.25 C89.28376402 137.49507861 89.24734799 133.03308967 87.875 128.3125 C85.87032814 124.98505234 83.5262269 122.14317675 80.875 119.3125 C80.39675781 118.78398437 79.91851563 118.25546875 79.42578125 117.7109375 C77.56952963 116.03703805 75.65823226 115.01719787 73.4375 113.875 C69.99154513 112.02418876 67.59851598 110.12993032 64.875 107.3125 C63.823125 106.9 62.77125 106.4875 61.6875 106.0625 C58.875 104.3125 58.875 104.3125 58.26953125 102.34765625 C58 100.125 58 100.125 57.875 96.3125 C59.195 95.6525 60.515 94.9925 61.875 94.3125 C61.875 93.6525 61.875 92.9925 61.875 92.3125 C62.473125 92.18875 63.07125 92.065 63.6875 91.9375 C66.13731348 91.35774015 66.13731348 91.35774015 68.875 89.3125 C68.875 88.3225 68.875 87.3325 68.875 86.3125 C69.46667969 86.29832031 70.05835938 86.28414063 70.66796875 86.26953125 C74.72774393 86.02448772 77.20428835 85.8235184 80.5 83.3125 C81.28375 82.3225 82.0675 81.3325 82.875 80.3125 C83.44089844 79.68214844 84.00679687 79.05179687 84.58984375 78.40234375 C94.03966997 67.39419524 95.3345255 54.09165528 94.73828125 40.10546875 C94.6671596 35.86938183 94.6671596 35.86938183 92.875 32.3125 C92.813125 31.301875 92.75125 30.29125 92.6875 29.25 C91.88308389 23.1288962 87.43988811 18.50814119 82.9375 14.5625 C75.19125995 8.87138486 69.1822507 7.13346064 59.5625 7.125 C58.84126953 7.11275391 58.12003906 7.10050781 57.37695312 7.08789062 C49.08841892 7.06558964 42.76545429 8.96134183 35.75 13.3125 C31.57797844 15.86566618 27.59990331 17.93380481 22.875 19.3125 C20.875 17.3125 20.875 17.3125 20.625 14 C19.61384523 9.02848903 18.00470558 8.09373029 13.875 5.3125 C13.215 5.3125 12.555 5.3125 11.875 5.3125 C11.875 4.6525 11.875 3.9925 11.875 3.3125 C1.80513756 0.95653218 -8.94484926 0.49375513 -16.8125 7.8125 Z " fill="#630000" transform="translate(677.125,391.6875)"/>
<path d="M0 0 C0.93588959 -0.00807175 1.87177917 -0.01614349 2.83602905 -0.02445984 C4.81107772 -0.03823638 6.78614955 -0.04898702 8.76123047 -0.05688477 C10.75869851 -0.06837935 12.75613644 -0.08879097 14.75341797 -0.1184082 C42.1812238 -0.52422547 42.1812238 -0.52422547 50.3984375 6.61328125 C54.39728302 12.61154952 53.31281402 20.00554311 52.9609375 26.92578125 C51.87625785 31.34793676 50.9564732 32.6751803 47.1484375 35.23828125 C42.23859711 36.40642172 37.20744745 37.23828125 32.1484375 37.23828125 C31.79909558 39.67431734 31.46941051 42.11095261 31.1484375 44.55078125 C31.05304688 45.20240234 30.95765625 45.85402344 30.859375 46.52539062 C28.60824796 64.13241995 30.53823662 82.30289463 31.6484375 99.92578125 C31.79349514 102.2961918 31.93802967 104.66663443 32.08203125 107.03710938 C32.43148684 112.77121605 32.78733429 118.50489689 33.1484375 124.23828125 C33.76332031 124.42003906 34.37820313 124.60179687 35.01171875 124.7890625 C35.81996094 125.04042969 36.62820313 125.29179688 37.4609375 125.55078125 C38.26144531 125.79441406 39.06195313 126.03804687 39.88671875 126.2890625 C42.29986918 127.30183548 43.51970636 128.20863167 45.1484375 130.23828125 C46.55846461 134.46836259 46.37284003 138.49421858 46.3984375 142.92578125 C46.4190625 143.79912109 46.4396875 144.67246094 46.4609375 145.57226562 C46.49631303 151.49324437 45.76556335 155.89203542 43.1484375 161.23828125 C34.11342582 169.80782896 16.87997384 168.87194467 5.29101562 168.75976562 C2.62279812 168.7380728 -0.04279452 168.75981961 -2.7109375 168.78515625 C-4.43490168 168.78251643 -6.15886425 168.77739862 -7.8828125 168.76953125 C-8.66628052 168.77762817 -9.44974854 168.7857251 -10.25695801 168.79406738 C-16.63270255 168.68667848 -21.93557355 166.8626713 -26.7265625 162.55078125 C-30.60862869 154.57097852 -31.38423751 144.26130879 -28.7265625 135.80078125 C-27.02765861 131.89009682 -24.67847579 130.15173789 -20.8515625 128.23828125 C-17.9765625 127.48828125 -17.9765625 127.48828125 -15.8515625 127.23828125 C-14.87225295 119.88908337 -14.70588618 112.68620013 -14.71875 105.27734375 C-14.71779327 104.05099213 -14.71683655 102.8246405 -14.71585083 101.56112671 C-14.715173 98.97759957 -14.71699947 96.3940707 -14.72119141 93.81054688 C-14.72653598 89.88277304 -14.72123757 85.95511402 -14.71484375 82.02734375 C-14.71550478 79.50651017 -14.71678646 76.98567665 -14.71875 74.46484375 C-14.71672577 73.30304596 -14.71470154 72.14124817 -14.71261597 70.94424438 C-14.73018878 64.74890077 -14.9823489 58.66102712 -15.62794495 52.49806213 C-15.89088817 49.84087324 -15.9527452 47.2198878 -15.9140625 44.55078125 C-15.90503906 43.72191406 -15.89601563 42.89304687 -15.88671875 42.0390625 C-15.87511719 41.44480469 -15.86351562 40.85054688 -15.8515625 40.23828125 C-19.19541646 38.67781607 -22.29840991 37.98655455 -25.9140625 37.42578125 C-29.47216063 36.74804827 -30.64752025 36.42241694 -33.4140625 33.92578125 C-36.92690374 27.35829545 -36.88704213 18.43090264 -35.0390625 11.30078125 C-33.87314553 8.29394275 -33.07601298 6.54268027 -30.8515625 4.23828125 C-27.7421875 3.2265625 -27.7421875 3.2265625 -24.1015625 2.55078125 C-22.91046875 2.32003906 -21.719375 2.08929688 -20.4921875 1.8515625 C-13.59203693 0.68919808 -6.98692773 0.05828333 0 0 Z M-13.7890625 2.98828125 C-14.6030249 3.04983398 -15.4169873 3.11138672 -16.25561523 3.17480469 C-21.65538 3.72476488 -26.39681895 5.02532561 -30.8515625 8.23828125 C-33.34462548 12.096593 -33.18108906 16.16026853 -33.2265625 20.67578125 C-33.25492187 21.95324219 -33.28328125 23.23070312 -33.3125 24.546875 C-32.77380789 28.86097704 -31.71648971 30.98873387 -28.8515625 34.23828125 C-26.55799476 35.08864308 -26.55799476 35.08864308 -24.1640625 34.98828125 C-21.77734375 35.03515625 -21.77734375 35.03515625 -19.8515625 35.23828125 C-19.5215625 35.89828125 -19.1915625 36.55828125 -18.8515625 37.23828125 C-17.8615625 37.56828125 -16.8715625 37.89828125 -15.8515625 38.23828125 C-11.39183738 44.07022948 -11.70152906 51.04560055 -11.73803711 58.10131836 C-11.73789108 58.85336548 -11.73774506 59.6054126 -11.7375946 60.38024902 C-11.73828588 62.84207136 -11.74604119 65.30381604 -11.75390625 67.765625 C-11.75577322 69.48197895 -11.75719581 71.19833344 -11.75819397 72.91468811 C-11.76199717 77.41420992 -11.77180852 81.91369904 -11.78289795 86.41320801 C-11.79315948 91.01179563 -11.79770172 95.61038858 -11.80273438 100.20898438 C-11.81343291 109.2187643 -11.83048273 118.22852005 -11.8515625 127.23828125 C-14.3265625 128.22828125 -14.3265625 128.22828125 -16.8515625 129.23828125 C-16.8515625 129.89828125 -16.8515625 130.55828125 -16.8515625 131.23828125 C-18.2128125 131.64046875 -18.2128125 131.64046875 -19.6015625 132.05078125 C-23.65366951 133.51663148 -23.65366951 133.51663148 -26.8515625 136.23828125 C-27.26447769 138.96777208 -27.42114701 141.20452995 -27.3515625 143.92578125 C-27.34382813 144.64314453 -27.33609375 145.36050781 -27.328125 146.09960938 C-27.1451894 151.6943899 -25.99090184 155.52927224 -22.8515625 160.23828125 C-22.1915625 160.23828125 -21.5315625 160.23828125 -20.8515625 160.23828125 C-20.8515625 160.89828125 -20.8515625 161.55828125 -20.8515625 162.23828125 C-20.1915625 162.23828125 -19.5315625 162.23828125 -18.8515625 162.23828125 C-18.8515625 162.89828125 -18.8515625 163.55828125 -18.8515625 164.23828125 C-16.14052304 165.14196107 -14.44353953 165.38715782 -11.64648438 165.44702148 C-10.37871155 165.47595741 -10.37871155 165.47595741 -9.08532715 165.50547791 C-5.20048637 165.56364075 -1.31582576 165.61255975 2.56933594 165.64331055 C4.60792058 165.66480847 6.64641501 165.69881273 8.68457031 165.74584961 C21.94466743 166.04878354 31.26951346 165.897848 41.7734375 157.01953125 C43.90806122 152.70176964 43.9847227 148.49910759 44.1484375 143.73828125 C44.21160156 142.80113281 44.27476562 141.86398437 44.33984375 140.8984375 C44.53054111 136.56161045 44.56406214 133.98247403 42.4140625 130.1328125 C40.02973135 128.13901835 38.95355007 127.57853688 35.8984375 127.42578125 C34.6609375 127.36390625 33.4234375 127.30203125 32.1484375 127.23828125 C32.1484375 126.24828125 32.1484375 125.25828125 32.1484375 124.23828125 C31.1584375 123.74328125 31.1584375 123.74328125 30.1484375 123.23828125 C29.74076843 121.10545349 29.74076843 121.10545349 29.5222168 118.25170898 C29.43921829 117.18590103 29.35621979 116.12009308 29.27070618 115.02198792 C29.1929747 113.85457565 29.11524323 112.68716339 29.03515625 111.484375 C28.95085861 110.27639755 28.86656097 109.0684201 28.77970886 107.82383728 C27.99059144 95.52334372 27.87805339 83.24441701 27.94262695 70.92260742 C27.96133363 67.22242596 27.96313261 63.52249028 27.96289062 59.82226562 C27.96779226 57.45182074 27.97361456 55.08137754 27.98046875 52.7109375 C27.98158157 51.61322525 27.9826944 50.515513 27.98384094 49.38453674 C27.99022079 48.37084518 27.99660065 47.35715363 28.00317383 46.31274414 C28.00889153 44.98262047 28.00889153 44.98262047 28.01472473 43.62562561 C28.14290937 41.33698197 28.40101536 39.40437629 29.1484375 37.23828125 C30.93359375 36.2265625 30.93359375 36.2265625 33.2109375 35.55078125 C34.01789063 35.31101562 34.82484375 35.07125 35.65625 34.82421875 C37.97734847 34.27850594 40.21717858 33.92740766 42.5859375 33.67578125 C46.19332821 33.6038199 46.19332821 33.6038199 48.1484375 31.23828125 C48.1484375 30.24828125 48.1484375 29.25828125 48.1484375 28.23828125 C48.8084375 28.23828125 49.4684375 28.23828125 50.1484375 28.23828125 C51.95332199 21.01874328 52.01189756 14.71892393 48.1484375 8.23828125 C38.86782334 0.93226585 25.43256918 1.90729392 14.2109375 1.98828125 C13.53811737 1.99138306 12.86529724 1.99448486 12.17208862 1.99768066 C3.50231218 2.04436477 -5.14644568 2.25637969 -13.7890625 2.98828125 Z " fill="#650000" transform="translate(315.8515625,391.76171875)"/>
<path d="M0 0 C2.56352443 2.7832551 4.46433278 5.54474875 6 9 C5.34 9.66 4.68 10.32 4 11 C3.68546875 10.44570313 3.3709375 9.89140625 3.046875 9.3203125 C2.61890625 8.59585937 2.1909375 7.87140625 1.75 7.125 C1.33234375 6.40570313 0.9146875 5.68640625 0.484375 4.9453125 C-1.69756269 2.08582573 -3.72495718 1.21176411 -7.234375 0.62890625 C-13.30149352 0.46874939 -18.55732125 1.47687958 -24.3125 3.25 C-24.9818457 3.45439697 -25.65119141 3.65879395 -26.34082031 3.86938477 C-32.0227777 5.7428453 -36.63713987 7.95570981 -40 13 C-40.66 13 -41.32 13 -42 13 C-42 17.29 -42 21.58 -42 26 C-41.34 26 -40.68 26 -40 26 C-39.91435791 26.6612085 -39.82871582 27.32241699 -39.74047852 28.00366211 C-39.35220172 30.98219871 -38.9574395 33.95983985 -38.5625 36.9375 C-38.42779297 37.97841797 -38.29308594 39.01933594 -38.15429688 40.09179688 C-38.02216797 41.08115234 -37.89003906 42.07050781 -37.75390625 43.08984375 C-37.63345947 44.00628662 -37.5130127 44.92272949 -37.38891602 45.86694336 C-37.21324927 47.97635212 -37.21324927 47.97635212 -36 49 C-35.76636119 50.84891946 -35.58696365 52.70488031 -35.4375 54.5625 C-35.35371094 55.57441406 -35.26992187 56.58632813 -35.18359375 57.62890625 C-35.12300781 58.41136719 -35.06242188 59.19382812 -35 60 C-34.34 60 -33.68 60 -33 60 C-31.02905192 64.92737019 -30.8200072 68.78020872 -31 74 C-30.34 74 -29.68 74 -29 74 C-27.40132487 78.33926106 -26.44343383 82.60456312 -25.66015625 87.14453125 C-24.72366474 91.19527265 -23.34388125 95.0688781 -22 99 C-21.48611207 100.55787989 -20.97437622 102.1164714 -20.46484375 103.67578125 C-20.21283203 104.44083984 -19.96082031 105.20589844 -19.70117188 105.99414062 C-19.18587051 107.55849542 -18.67290274 109.12362058 -18.16210938 110.68945312 C-17.91138672 111.44806641 -17.66066406 112.20667969 -17.40234375 112.98828125 C-17.18054443 113.66415283 -16.95874512 114.34002441 -16.73022461 115.03637695 C-16.02733411 117.05547144 -16.02733411 117.05547144 -14.91235352 119.06323242 C-14 121 -14 121 -14 124 C-13.01 124.33 -12.02 124.66 -11 125 C-9.64560332 127.70879335 -9.93498549 130.00933268 -10 133 C-9.34 133 -8.68 133 -8 133 C-6.68 135.64 -5.36 138.28 -4 141 C-3.67 141 -3.34 141 -3 141 C-2.74347656 141.87269531 -2.48695313 142.74539063 -2.22265625 143.64453125 C-0.02305451 149.68113794 3.66393306 156.15440168 9.421875 159.33984375 C11.61526331 160.06022128 13.73278319 160.57964817 16 161 C16.99 161.33 17.98 161.66 19 162 C31.89887002 163.00410365 46.98946339 161.15684879 58 154 C59.60875 153.071875 59.60875 153.071875 61.25 152.125 C64.20496456 150.2578691 64.20496456 150.2578691 64.875 147.25 C64.91625 146.5075 64.9575 145.765 65 145 C65.66 145 66.32 145 67 145 C67.99 141.7 68.98 138.4 70 135 C70.66 135 71.32 135 72 135 C72.12375 133.7625 72.2475 132.525 72.375 131.25 C72.69239336 128.07606638 73.4521169 125.79374023 75 123 C75.77358433 133.9161345 73.65762973 143.7568496 66.5625 152.32421875 C57.68371266 161.84671818 45.13162451 166.57208886 32.2578125 167.390625 C23.20815805 167.70614386 15.18792298 167.25712662 7 163 C5.906875 162.443125 4.81375 161.88625 3.6875 161.3125 C-3.15652212 155.42345771 -6.51119056 147.1337941 -10 139 C-10.55021155 137.76739193 -11.10240413 136.53566684 -11.65625 135.3046875 C-19.82812625 117.05718212 -26.42672747 98.1968276 -32 79 C-32.38211988 77.71593951 -32.76500396 76.43210632 -33.1484375 75.1484375 C-34.24286823 71.47704334 -35.320254 67.80098922 -36.38574219 64.12109375 C-36.94373557 62.19428671 -37.50674377 60.2689337 -38.0703125 58.34375 C-40.16908171 50.87411469 -41.8076 43.3711824 -43.25 35.75 C-43.42539307 34.85128174 -43.60078613 33.95256348 -43.78149414 33.02661133 C-46.78146778 16.49876866 -46.78146778 16.49876866 -43.25 10.1875 C-34.43398871 -0.35118016 -12.47075963 -6.16127513 0 0 Z " fill="#660202" transform="translate(177,397)"/>
<path d="M0 0 C1.66675781 -0.02416992 1.66675781 -0.02416992 3.3671875 -0.04882812 C12.83992531 -0.05446666 18.70585327 1.72283645 25.625 8.3125 C26.82901346 11.92454037 26.57368325 15.01955565 26.3125 18.75 C26.24083618 19.82797852 26.24083618 19.82797852 26.16772461 20.92773438 C25.79048549 26.1019577 25.08392388 31.14940447 24.1484375 36.25390625 C23.57942252 39.57882215 23.19168426 42.89815424 22.8125 46.25 C20.68935785 64.232677 17.19555248 82.10374403 13.52734375 99.828125 C12.90137635 102.8725125 12.33590597 105.92003302 11.81640625 108.984375 C11.62425537 110.09655396 11.62425537 110.09655396 11.42822266 111.23120117 C11.08777308 113.22685387 10.76016559 115.22468567 10.43359375 117.22265625 C9.63642815 120.2688301 9.09342245 121.44579826 6.625 123.3125 C6.91178021 120.85351223 7.20434306 118.39542407 7.5 115.9375 C7.57863281 115.25816406 7.65726562 114.57882812 7.73828125 113.87890625 C8.41738561 108.28935497 9.48095455 102.82335945 10.625 97.3125 C11.52213985 92.88627964 12.40839714 88.45802462 13.28442383 84.02758789 C13.55218274 82.68068434 13.82267195 81.33432055 14.09594727 79.98852539 C15.89540841 71.11457418 17.16886896 62.36665289 17.625 53.3125 C18.285 53.3125 18.945 53.3125 19.625 53.3125 C19.60179687 52.71824219 19.57859375 52.12398438 19.5546875 51.51171875 C19.43173779 45.86481431 20.01224594 40.76297784 21.11328125 35.234375 C22.03690635 29.96054617 22.34803684 24.65393235 22.625 19.3125 C22.70621094 17.83910156 22.70621094 17.83910156 22.7890625 16.3359375 C22.81742187 15.44132812 22.84578125 14.54671875 22.875 13.625 C22.90078125 12.83738281 22.9265625 12.04976563 22.953125 11.23828125 C22.84484375 10.60277344 22.7365625 9.96726562 22.625 9.3125 C21.635 8.6525 20.645 7.9925 19.625 7.3125 C19.625 6.6525 19.625 5.9925 19.625 5.3125 C17.954375 5.0959375 17.954375 5.0959375 16.25 4.875 C12.625 4.3125 12.625 4.3125 10.625 3.3125 C-5.9832156 2.15679638 -5.9832156 2.15679638 -20.875 8.25 C-25.29977368 17.28391294 -26.31436503 27.74888149 -26.83984375 37.671875 C-26.91826031 39.04819761 -26.99704698 40.42449918 -27.07617188 41.80078125 C-27.19630003 43.94236781 -27.31361312 46.08399121 -27.42456055 48.22607422 C-27.53404638 50.31271744 -27.6548254 52.39846197 -27.77734375 54.484375 C-27.84429443 55.7228418 -27.91124512 56.96130859 -27.98022461 58.23730469 C-28.375 61.3125 -28.375 61.3125 -30.375 64.3125 C-30.97783728 66.4786308 -30.97783728 66.4786308 -31.375 68.875 C-31.54 69.75414062 -31.705 70.63328125 -31.875 71.5390625 C-32.04 72.45429688 -32.205 73.36953125 -32.375 74.3125 C-32.70196948 76.12615882 -33.03505461 77.93872849 -33.375 79.75 C-33.519375 80.55308594 -33.66375 81.35617187 -33.8125 82.18359375 C-34.375 84.3125 -34.375 84.3125 -36.375 87.3125 C-38.8125 88.125 -38.8125 88.125 -41.375 88.3125 C-45.61330976 85.48696016 -45.35215348 83.19069112 -46.375 78.3125 C-47.035 78.3125 -47.695 78.3125 -48.375 78.3125 C-50.46901785 71.57082804 -52.3164994 64.80781862 -53.9375 57.9375 C-54.15365967 57.02718018 -54.36981934 56.11686035 -54.5925293 55.17895508 C-56.13286457 48.59049173 -57.44487448 42.0177332 -58.375 35.3125 C-59.035 35.3125 -59.695 35.3125 -60.375 35.3125 C-60.375 32.3425 -60.375 29.3725 -60.375 26.3125 C-59.715 26.3125 -59.055 26.3125 -58.375 26.3125 C-56.34226138 33.83795785 -54.35040535 41.36483274 -52.5 48.9375 C-50.88539584 55.46964285 -49.13174067 61.95947499 -47.3125 68.4375 C-47.06709473 69.32646973 -46.82168945 70.21543945 -46.56884766 71.13134766 C-45.23931088 75.80743449 -43.74056389 80.03061878 -41.375 84.3125 C-40.715 84.3125 -40.055 84.3125 -39.375 84.3125 C-36.50020161 74.24622216 -34.33791051 64.29657115 -32.75 53.9375 C-32.5343869 52.57049823 -32.31839994 51.20355539 -32.10205078 49.83666992 C-30.99670977 42.78139916 -30.00807132 35.7260486 -29.25 28.625 C-27.17716101 10.39512138 -27.17716101 10.39512138 -21.5 5.1875 C-14.73204262 -0.14724288 -8.29919692 -0.02390322 0 0 Z " fill="#650000" transform="translate(245.375,395.6875)"/>
<path d="M0 0 C2.6015625 0.0234375 2.6015625 0.0234375 5.625 0.375 C6.62789062 0.48585938 7.63078125 0.59671875 8.6640625 0.7109375 C9.82035156 0.85402344 9.82035156 0.85402344 11 1 C11 1.66 11 2.32 11 3 C11.66 3 12.32 3 13 3 C15.20756672 4.65705133 15.92797867 5.7330467 16.65234375 8.41796875 C17.2576033 14.29644852 17.06091216 18.31400388 14.203125 23.5390625 C13 25 13 25 10 26 C9.67 26.99 9.34 27.98 9 29 C2.375 30.25 2.375 30.25 -1 28 C-1 27.34 -1 26.68 -1 26 C-1.66 26 -2.32 26 -3 26 C-3.19677791 7.98388953 -3.19677791 7.98388953 -2 2 C-1.34 1.34 -0.68 0.68 0 0 Z M2 2 C0.35945558 4.88609027 -0.24936376 6.94488762 -0.23046875 10.2578125 C-0.22853516 11.04800781 -0.22660156 11.83820313 -0.22460938 12.65234375 C-0.21236328 13.46832031 -0.20011719 14.28429687 -0.1875 15.125 C-0.18685547 15.94871094 -0.18621094 16.77242188 -0.18554688 17.62109375 C-0.27004578 21.94691579 -0.27004578 21.94691579 1 26 C3.91916538 26.34751969 6.13195476 26.53280018 8.69921875 24.95703125 C11.70937642 22.47164683 13.78482005 20.73680964 14.2734375 16.79296875 C14.49862512 11.04478754 14.49862512 11.04478754 11.9375 6 C8.5432228 3.68900276 5.98729472 2.86000474 2 2 Z " fill="#6A0000" transform="translate(698,442)"/>
<path d="M0 0 C0 0.33 0 0.66 0 1 C-1.15757812 1.06058594 -2.31515625 1.12117188 -3.5078125 1.18359375 C-5.04688457 1.26805502 -6.58594655 1.35270018 -8.125 1.4375 C-8.88554688 1.47681641 -9.64609375 1.51613281 -10.4296875 1.55664062 C-11.17734375 1.59853516 -11.925 1.64042969 -12.6953125 1.68359375 C-13.37609863 1.72025146 -14.05688477 1.75690918 -14.75830078 1.79467773 C-17.52318424 2.04791962 -20.26131995 2.54355333 -23 3 C-23 7.29 -23 11.58 -23 16 C-15.41 15.67 -7.82 15.34 0 15 C0 15.66 0 16.32 0 17 C1.65 17 3.3 17 5 17 C5 17.33 5 17.66 5 18 C-2.01209362 18.75660355 -9.0131227 19.14756221 -16.0625 19.25 C-16.80040771 19.27126953 -17.53831543 19.29253906 -18.29858398 19.31445312 C-23.49322618 19.34808707 -23.49322618 19.34808707 -25.93359375 17.671875 C-28.35307498 13.87869564 -28.44502521 10.37608118 -28 6 C-21.94640807 -4.14202528 -10.2464633 -1.60728836 0 0 Z " fill="#730001" transform="translate(603,438)"/>
<path d="M0 0 C3.6217288 1.20724293 3.83534622 2.04455334 5.6875 5.25 C9.384351 10.93537721 13.10143654 13.84206846 19.6171875 15.77734375 C33.7893498 18.71547496 48.2465561 16.69555805 61 10 C61.66 10 62.32 10 63 10 C63 10.66 63 11.32 63 12 C51.08259142 19.94493906 36.97501511 21.54780488 23 20 C19.02673177 19.11705151 15.60461403 17.87413809 12 16 C10.906875 15.443125 9.81375 14.88625 8.6875 14.3125 C4.96677502 11.11094595 2.26224803 7.35603079 0 3 C0 2.01 0 1.02 0 0 Z " fill="#5E0000" transform="translate(172,544)"/>
<path d="M0 0 C0 0.66 0 1.32 0 2 C-1.95030467 3.33346412 -3.99004369 4.43891316 -6.0546875 5.5859375 C-8.27570272 7.20041041 -8.85847662 8.54966102 -10 11 C-12.625 12.75 -12.625 12.75 -15 14 C-14.34410262 15.98264795 -14.34410262 15.98264795 -13 18 C-11.35008418 18.70710678 -9.6792238 19.36562656 -8 20 C-5.54857647 21.51052446 -3.14357739 23.07263358 -1 25 C-1 25.66 -1 26.32 -1 27 C0.32 27.66 1.64 28.32 3 29 C2.67 29.66 2.34 30.32 2 31 C-1.09305422 30.39096941 -3.19639762 29.40131197 -5.75 27.5625 C-6.67039062 26.91474609 -6.67039062 26.91474609 -7.609375 26.25390625 C-8.06828125 25.84011719 -8.5271875 25.42632812 -9 25 C-9 24.34 -9 23.68 -9 23 C-9.928125 22.71125 -10.85625 22.4225 -11.8125 22.125 C-15 21 -15 21 -18 19 C-18.70052461 16.336937 -18.77744818 13.75964263 -19 11 C-17.35 10.34 -15.7 9.68 -14 9 C-14 8.34 -14 7.68 -14 7 C-13.030625 6.566875 -12.06125 6.13375 -11.0625 5.6875 C-7.72268235 4.2985139 -7.72268235 4.2985139 -7 1 C-2.25 0 -2.25 0 0 0 Z " fill="#700102" transform="translate(753,477)"/>
<path d="M0 0 C0.33 0 0.66 0 1 0 C1.01839432 0.63067886 1.03678864 1.26135773 1.05574036 1.91114807 C1.25182673 8.54799512 1.46583647 15.18410141 1.68969727 21.82006836 C1.77067983 24.28802422 1.84727669 26.75612844 1.91918945 29.22436523 C2.47233128 48.06552032 3.3284667 64.92671443 12 82 C9 81 9 81 7.6484375 78.6015625 C7.01808594 77.12816406 7.01808594 77.12816406 6.375 75.625 C5.94960938 74.64789062 5.52421875 73.67078125 5.0859375 72.6640625 C4.32647487 70.80092036 3.6362454 68.90873621 3 67 C2.34 66.67 1.68 66.34 1 66 C-0.47706387 57.84840333 -0.13572821 49.27170613 -0.09765625 41.015625 C-0.0962413 39.83401794 -0.09482635 38.65241089 -0.09336853 37.43499756 C-0.08782617 33.70663792 -0.07528481 29.9783411 -0.0625 26.25 C-0.05747754 23.70312587 -0.05291595 21.1562508 -0.04882812 18.609375 C-0.0378757 12.40622902 -0.02119615 6.203119 0 0 Z " fill="#730101" transform="translate(787,466)"/>
<path d="M0 0 C0.66 0.33 1.32 0.66 2 1 C2.97333188 5.88385575 3.13519098 10.6631715 3.16113281 15.63183594 C3.16609772 16.35955704 3.17106262 17.08727814 3.17617798 17.83705139 C3.19066268 20.2195025 3.19757443 22.6018873 3.203125 24.984375 C3.20595238 25.80165321 3.20877975 26.61893143 3.21169281 27.46097565 C3.22662097 31.7762331 3.23589374 36.09145759 3.24023438 40.40673828 C3.24574509 44.86460232 3.26984533 49.32216493 3.29820633 53.77993393 C3.31679902 57.21139426 3.32203625 60.64278096 3.32357025 64.07428741 C3.32659917 65.71856607 3.33463578 67.36284335 3.34775543 69.00707245 C3.36476427 71.30020043 3.36295011 73.59257716 3.35644531 75.88574219 C3.36009094 77.19033386 3.36373657 78.49492554 3.36749268 79.83905029 C3 83 3 83 1.62225342 84.81573486 C0.81923798 85.40194611 0.81923798 85.40194611 0 86 C-0.763125 86.680625 -1.52625 87.36125 -2.3125 88.0625 C-5.14990142 90.10806847 -7.64841558 91.06467412 -11 92 C-6 87 -6 87 -3.9375 86.3125 C-1.56822859 85.03592302 -1.56822859 85.03592302 -1.25 81.375 C-1.12625 79.704375 -1.12625 79.704375 -1 78 C-0.34 78 0.32 78 1 78 C1.02317308 69.33337218 1.04094045 60.66675504 1.05181217 52.000103 C1.05703012 47.97580623 1.06410804 43.95153066 1.07543945 39.92724609 C1.08630696 36.04339642 1.09228505 32.15956714 1.09487724 28.27570343 C1.09672452 26.79414804 1.10033175 25.31259376 1.10573006 23.83104706 C1.11299174 21.75550426 1.11398877 19.68004566 1.11352539 17.60449219 C1.11685631 15.83244415 1.11685631 15.83244415 1.12025452 14.02459717 C1.01863668 11.46874294 0.89448872 9.38816009 0 7 C-0.66 6.67 -1.32 6.34 -2 6 C-1.67 5.38125 -1.34 4.7625 -1 4.125 C0.14193235 2.08981656 0.14193235 2.08981656 0 0 Z " fill="#720304" transform="translate(302,434)"/>
<path d="M0 0 C0.75498779 0.20858643 1.50997559 0.41717285 2.2878418 0.63208008 C11.16739777 2.9042512 19.678665 3.53362737 28.8125 3.6875 C30.19859756 3.72078453 31.5846665 3.75528378 32.97070312 3.79101562 C36.31372018 3.87255263 39.65650595 3.94200552 43 4 C42.67 4.66 42.34 5.32 42 6 C37.14366965 6.07453636 32.28767732 6.12878329 27.4309082 6.16479492 C25.78110956 6.17981806 24.13135042 6.2002426 22.48168945 6.22631836 C20.10097464 6.26298899 17.72079092 6.27979103 15.33984375 6.29296875 C14.61039047 6.30845261 13.88093719 6.32393646 13.12937927 6.33988953 C8.04232991 6.34153576 4.55899214 5.26772587 0 3 C0 2.01 0 1.02 0 0 Z " fill="#550000" transform="translate(292,554)"/>
<path d="M0 0 C2.83132321 0.62918293 4.54748795 1.32420898 6.1875 3.7734375 C7.88427712 7.12956283 9.17573662 10.32378531 10 14 C10.66 13.67 11.32 13.34 12 13 C12.36463732 14.74784829 12.7163078 16.49840502 13.0625 18.25 C13.35833984 19.71179688 13.35833984 19.71179688 13.66015625 21.203125 C13.99029907 23.9201625 13.86734695 25.44705426 13 28 C12.67 28.99 12.34 29.98 12 31 C11.74605469 30.01 11.49210937 29.02 11.23046875 28 C9.45929476 21.17869168 7.59953382 14.56072822 5 8 C4.6495378 6.67106617 4.31202068 5.33848122 4 4 C2.35 4.33 0.7 4.66 -1 5 C-0.67 3.35 -0.34 1.7 0 0 Z " fill="#710203" transform="translate(416,398)"/>
<path d="M0 0 C4.02044681 -0.14607549 8.04020497 -0.23433213 12.0625 -0.3125 C13.7630957 -0.3753418 13.7630957 -0.3753418 15.49804688 -0.43945312 C22.74236874 -0.54505548 26.61242378 0.03467213 32 5 C31.67 6.32 31.34 7.64 31 9 C30.690625 8.071875 30.690625 8.071875 30.375 7.125 C28.36033351 4.01142451 26.5963144 3.87435147 23 3 C18.6907214 2.7983432 14.38837135 3.00279937 10.08007812 3.16601562 C9.21447266 3.18470703 8.34886719 3.20339844 7.45703125 3.22265625 C6.67303955 3.25109619 5.88904785 3.27953613 5.08129883 3.30883789 C2.48372772 2.92339186 1.63748345 1.99227699 0 0 Z " fill="#640000" transform="translate(856,500)"/>
<path d="M0 0 C4.75159936 4.25143101 6.62486654 7.54877218 7.3125 13.875 C6.55497167 21.45028333 3.05383033 27.39340697 -2 33 C-2.99 33.66 -3.98 34.32 -5 35 C-4.34 33.35 -3.68 31.7 -3 30 C-2.34 30 -1.68 30 -1 30 C-0.731875 29.13375 -0.46375 28.2675 -0.1875 27.375 C1 24 1 24 2.625 21.1875 C4.43209405 16.99832744 4.741975 13.49871157 4 9 C2.8832844 6.4475072 1.53310817 4.34757189 0 2 C0 1.34 0 0.68 0 0 Z " fill="#76080C" transform="translate(759,513)"/>
<path d="M0 0 C1.1446875 1.11375 1.1446875 1.11375 2.3125 2.25 C2.3125 3.57 2.3125 4.89 2.3125 6.25 C1.6525 5.92 0.9925 5.59 0.3125 5.25 C0.10625 4.59 -0.1 3.93 -0.3125 3.25 C-1.63571348 0.85262306 -1.63571348 0.85262306 -5.1875 0.375 C-11.34822024 -0.10665631 -17.20282703 1.4061488 -23 3.375 C-25.73160622 4.26436017 -27.83656823 4.41770187 -30.6875 4.25 C-24.31335042 -2.12414958 -8.01618566 -4.70880836 0 0 Z " fill="#780608" transform="translate(175.6875,398.75)"/>
<path d="M0 0 C0.33 0 0.66 0 1 0 C1.50246043 9.43509032 1.87703585 20.04062732 -4.4609375 27.78515625 C-6 29.125 -6 29.125 -9 31 C-10.051875 31.680625 -10.051875 31.680625 -11.125 32.375 C-13.4526665 33.15088883 -14.68307453 32.6633521 -17 32 C-16.22914063 31.62488281 -15.45828125 31.24976563 -14.6640625 30.86328125 C-13.66117188 30.35152344 -12.65828125 29.83976563 -11.625 29.3125 C-10.62726562 28.81363281 -9.62953125 28.31476562 -8.6015625 27.80078125 C-5.58438172 25.71231227 -5.01419566 24.46207106 -4 21 C-3.73058594 20.32839844 -3.46117187 19.65679688 -3.18359375 18.96484375 C-0.8823009 12.71159249 -0.32523366 6.62803767 0 0 Z " fill="#750608" transform="translate(626,521)"/>
<path d="M0 0 C0.33 0 0.66 0 1 0 C1.67705744 9.55403272 0.28878801 18.24952843 -5.25 26.25 C-5.8275 26.8275 -6.405 27.405 -7 28 C-7 24.17247812 -6.34409711 22.36599055 -4.80615234 18.97998047 C-3.37158435 15.45655636 -2.62870731 11.76877987 -1.8125 8.0625 C-1.63525391 7.28326172 -1.45800781 6.50402344 -1.27539062 5.70117188 C-0.8443176 3.80212046 -0.42130992 1.90124122 0 0 Z " fill="#5F0000" transform="translate(251,520)"/>
<path d="M0 0 C-2.65115841 2.65115841 -4.51389959 2.39072791 -8.125 2.65625 C-10.23902286 2.86035366 -10.23902286 2.86035366 -12 5 C-13.953125 5.52734375 -13.953125 5.52734375 -16.25 5.9375 C-20.22230079 6.74347407 -23.44357884 8.00493447 -27 10 C-27.99 10.495 -27.99 10.495 -29 11 C-28.7421875 9.12890625 -28.7421875 9.12890625 -28 7 C-20.27352184 1.6633395 -9.21445809 -0.5215731 0 0 Z M-32 11 C-29 12 -29 12 -29 12 Z " fill="#7F0608" transform="translate(412,397)"/>
<path d="M0 0 C0.33 0 0.66 0 1 0 C0.49775354 5.02246462 -0.67865155 8.55074881 -3 13 C-3.12375 14.2375 -3.12375 14.2375 -3.25 15.5 C-4.45705624 19.5235208 -7.73924421 21.5225067 -11 24 C-11.33 23.34 -11.66 22.68 -12 22 C-12.66 21.67 -13.32 21.34 -14 21 C-13.01 20.67 -12.02 20.34 -11 20 C-7.37793954 16.89537674 -5.41434907 14.83407252 -5 10 C-4.34 10 -3.68 10 -3 10 C-2.01 6.7 -1.02 3.4 0 0 Z " fill="#680102" transform="translate(247,532)"/>
<path d="M0 0 C3.77312005 -0.35098791 5.53511035 -0.30640454 8.75 1.8125 C11.33745216 4.32807849 12.89632631 5.97393537 13.265625 9.62890625 C13.26046875 10.59699219 13.2553125 11.56507813 13.25 12.5625 C13.25515625 13.53316406 13.2603125 14.50382812 13.265625 15.50390625 C13 18 13 18 11 20 C10.95101562 19.16855469 10.90203125 18.33710938 10.8515625 17.48046875 C10.77679687 16.39378906 10.70203125 15.30710937 10.625 14.1875 C10.55539062 13.10855469 10.48578125 12.02960938 10.4140625 10.91796875 C10.18804267 7.81373814 10.18804267 7.81373814 8 5 C5.94074861 4.27617533 5.94074861 4.27617533 4 4 C4 3.34 4 2.68 4 2 C2.68 1.34 1.36 0.68 0 0 Z " fill="#510000" transform="translate(502,398)"/>
<path d="M0 0 C3.80195622 0.5431366 5.50130343 2.15665563 8 5 C9.37365621 7.74731243 9.0128639 9.81667064 8.87890625 12.8828125 C8.83056641 14.04941406 8.78222656 15.21601562 8.73242188 16.41796875 C8.67634766 17.64128906 8.62027344 18.86460937 8.5625 20.125 C8.51029297 21.35605469 8.45808594 22.58710937 8.40429688 23.85546875 C8.2743256 26.90388588 8.13934981 29.9519995 8 33 C7.67 33 7.34 33 7 33 C6.67 24.09 6.34 15.18 6 6 C5.34 6 4.68 6 4 6 C3.71125 5.38125 3.4225 4.7625 3.125 4.125 C2.06279958 1.86674235 2.06279958 1.86674235 0 0 Z " fill="#770609" transform="translate(879,503)"/>
<path d="M0 0 C0.33 0 0.66 0 1 0 C1.33 6.93 1.66 13.86 2 21 C1.34 21 0.68 21 0 21 C-0.5775 21.598125 -1.155 22.19625 -1.75 22.8125 C-4.34069942 25.33123555 -6.64530669 26.67210057 -10 28 C-12.1875 27.57421875 -12.1875 27.57421875 -14 27 C-13.31292969 26.68546875 -12.62585938 26.3709375 -11.91796875 26.046875 C-11.01691406 25.61890625 -10.11585938 25.1909375 -9.1875 24.75 C-8.29417969 24.33234375 -7.40085937 23.9146875 -6.48046875 23.484375 C-3.67287137 21.80423798 -2.48089237 20.92381315 -1 18 C-0.50750615 14.92144526 -0.39762916 11.86329516 -0.3125 8.75 C-0.27833984 7.90953125 -0.24417969 7.0690625 -0.20898438 6.203125 C-0.12676432 4.13587796 -0.06169843 2.06796126 0 0 Z " fill="#760407" transform="translate(359,528)"/>
<path d="M0 0 C1.32 0.66 2.64 1.32 4 2 C3.25234375 2.38671875 2.5046875 2.7734375 1.734375 3.171875 C0.74953125 3.69265625 -0.2353125 4.2134375 -1.25 4.75 C-2.22453125 5.26046875 -3.1990625 5.7709375 -4.203125 6.296875 C-6.91493199 7.94819881 -8.86796403 9.66491299 -11 12 C-11.99 11.67 -12.98 11.34 -14 11 C-9.85989729 6.45924219 -5.17609824 3.28157862 0 0 Z " fill="#560000" transform="translate(554,396)"/>
<path d="M0 0 C2.95529269 -0.17384075 4.98825013 -0.00417605 7.80126953 0.99560547 C11.0951146 2.02986578 13.61748204 2.23074761 17.0546875 2.1953125 C18.16328125 2.18886719 19.271875 2.18242188 20.4140625 2.17578125 C22.12722656 2.15064453 22.12722656 2.15064453 23.875 2.125 C25.0403125 2.11597656 26.205625 2.10695313 27.40625 2.09765625 C30.27104577 2.07417432 33.13541535 2.04133141 36 2 C31.0175618 4.93613183 25.8787889 4.32937287 20.25 4.3125 C19.19039063 4.32861328 18.13078125 4.34472656 17.0390625 4.36132812 C10.63368301 4.36530169 5.83556323 3.67110926 0 1 C0 0.67 0 0.34 0 0 Z " fill="#760407" transform="translate(429,557)"/>
<path d="M0 0 C0.33 1.32 0.66 2.64 1 4 C-5.3529943 9.6055832 -10.83186236 10.32672551 -19 10 C-15.5049512 8.15715609 -11.97706856 6.96537777 -8.21875 5.78125 C-4.23291501 4.37778698 -2.40611367 3.6091705 0 0 Z " fill="#590000" transform="translate(359,548)"/>
<path d="M0 0 C0 0.66 0 1.32 0 2 C-2.43133054 3.63863397 -4.84771535 5.14921334 -7.375 6.625 C-8.07367187 7.04523438 -8.77234375 7.46546875 -9.4921875 7.8984375 C-14.72859172 11 -14.72859172 11 -17 11 C-17.33 11.66 -17.66 12.32 -18 13 C-18 12.01 -18 11.02 -18 10 C-16.68 9.67 -15.36 9.34 -14 9 C-14 8.34 -14 7.68 -14 7 C-13.030625 6.566875 -12.06125 6.13375 -11.0625 5.6875 C-7.72268235 4.2985139 -7.72268235 4.2985139 -7 1 C-2.25 0 -2.25 0 0 0 Z " fill="#7B0507" transform="translate(753,477)"/>
<path d="M0 0 C10.23 0 20.46 0 31 0 C31 0.33 31 0.66 31 1 C30.24380371 1.02505615 29.48760742 1.0501123 28.70849609 1.07592773 C25.26384541 1.19236886 21.81943592 1.31487662 18.375 1.4375 C16.59029297 1.49647461 16.59029297 1.49647461 14.76953125 1.55664062 C13.03896484 1.61948242 13.03896484 1.61948242 11.2734375 1.68359375 C9.68668213 1.73858032 9.68668213 1.73858032 8.06787109 1.79467773 C4.99072727 2.00062059 2.0313191 2.44180821 -1 3 C-0.67 2.01 -0.34 1.02 0 0 Z " fill="#770203" transform="translate(582,480)"/>
<path d="M0 0 C0.80179688 0.00451172 1.60359375 0.00902344 2.4296875 0.01367188 C4.41149006 0.02546832 6.39325433 0.04340395 8.375 0.0625 C8.375 0.3925 8.375 0.7225 8.375 1.0625 C3.755 1.3925 -0.865 1.7225 -5.625 2.0625 C-2.655 2.5575 -2.655 2.5575 0.375 3.0625 C0.375 3.3925 0.375 3.7225 0.375 4.0625 C-3.585 4.0625 -7.545 4.0625 -11.625 4.0625 C-11.295 3.0725 -10.965 2.0825 -10.625 1.0625 C-7.31505287 -0.59247356 -3.63377 -0.03834335 0 0 Z " fill="#750101" transform="translate(864.625,479.9375)"/>
<path d="M0 0 C-5.20960132 3.95211134 -9.28361045 7 -16 7 C-16 6.34 -16 5.68 -16 5 C-14.96875 4.566875 -13.9375 4.13375 -12.875 3.6875 C-10.40430966 2.64220793 -8.12284565 1.52768612 -5.75 0.25 C-3 -1 -3 -1 0 0 Z " fill="#680203" transform="translate(475,556)"/>
<path d="M0 0 C0.66 0 1.32 0 2 0 C2.72464589 2.26676422 3.42992064 4.53667564 4.125 6.8125 C4.33253906 7.45509766 4.54007812 8.09769531 4.75390625 8.75976562 C5.3203125 10.64453125 5.3203125 10.64453125 6 14 C5.01 15.485 5.01 15.485 4 17 C3.32635339 14.91891315 2.66133202 12.8350329 2 10.75 C1.62875 9.58984375 1.2575 8.4296875 0.875 7.234375 C0 4 0 4 0 0 Z " fill="#5D0000" transform="translate(434,445)"/>
<path d="M0 0 C0.66 0 1.32 0 2 0 C2.66 5.61 3.32 11.22 4 17 C2.20533981 14.30800971 1.16556086 11.98674972 0 9 C-0.37125 8.278125 -0.7425 7.55625 -1.125 6.8125 C-2 5 -2 5 -2 3 C-1.34 3 -0.68 3 0 3 C0 2.01 0 1.02 0 0 Z " fill="#730103" transform="translate(135,423)"/>
<path d="M0 0 C1.58400609 2.01600775 2.93086257 3.84876188 4 6.1875 C4.92729859 8.35236812 4.92729859 8.35236812 8 9 C8.6875 11.0625 8.6875 11.0625 9 13 C6 13 6 13 3.9375 11.25 C0.68228736 7.46975306 -0.27844738 5.01205276 0 0 Z " fill="#690001" transform="translate(532,539)"/>
<path d="M0 0 C0.33 0 0.66 0 1 0 C0.91915297 3.27184808 0.80631126 6.54182779 0.6875 9.8125 C0.66494141 10.74126953 0.64238281 11.67003906 0.61914062 12.62695312 C0.58369141 13.51962891 0.54824219 14.41230469 0.51171875 15.33203125 C0.48553467 16.15421143 0.45935059 16.9763916 0.43237305 17.82348633 C-0.08463956 20.42606532 -0.98202695 21.33910717 -3 23 C-2.33742578 15.27577951 -1.23535374 7.65199697 0 0 Z " fill="#780306" transform="translate(217,437)"/>
<path d="M0 0 C2 2 2 2 2.265625 4.6796875 C2.26046875 5.73414063 2.2553125 6.78859375 2.25 7.875 C2.25773438 9.44894531 2.25773438 9.44894531 2.265625 11.0546875 C2.0075764 13.91599111 1.4774449 15.57276909 0 18 C-0.66 17.67 -1.32 17.34 -2 17 C-1.84402344 16.15695312 -1.68804688 15.31390625 -1.52734375 14.4453125 C-1.23537109 12.80175781 -1.23537109 12.80175781 -0.9375 11.125 C-0.74027344 10.03445313 -0.54304687 8.94390625 -0.33984375 7.8203125 C0.25631899 5.05346717 0.25631899 5.05346717 -1 3 C-0.67 2.01 -0.34 1.02 0 0 Z " fill="#7C080B" transform="translate(877,461)"/>
<path d="M0 0 C6.4 0.36923077 6.4 0.36923077 9.4375 3.5625 C9.953125 4.366875 10.46875 5.17125 11 6 C10.67 6.66 10.34 7.32 10 8 C9.67 7.67 9.34 7.34 9 7 C8.01 7.99 7.02 8.98 6 10 C6 7.69 6 5.38 6 3 C4.02 2.34 2.04 1.68 0 1 C0 0.67 0 0.34 0 0 Z " fill="#7F0709" transform="translate(349,519)"/>
<path d="M0 0 C0 3.72512514 -0.99849779 4.72075135 -3.25 7.625 C-4.15492188 8.81996094 -4.15492188 8.81996094 -5.078125 10.0390625 C-7.10634802 12.10850956 -8.17288273 12.63722831 -11 13 C-7.61227103 8.30840284 -4.21814817 3.9700218 0 0 Z " fill="#780507" transform="translate(764,464)"/>
<path d="M0 0 C3.60271909 0.97370786 4.79777091 1.6899154 6.875 4.875 C7.98579669 7.96054636 8.24791579 9.05038085 7 12 C4 6.25 4 6.25 4 4 C2.35 4.33 0.7 4.66 -1 5 C-0.67 3.35 -0.34 1.7 0 0 Z " fill="#7D0808" transform="translate(416,398)"/>
<path d="M0 0 C2.48262432 2.48262432 3.07286975 4.61775287 4.1875 7.9375 C4.55230469 8.99839844 4.91710937 10.05929687 5.29296875 11.15234375 C6 14 6 14 5 17 C4.34 17 3.68 17 3 17 C2.22597091 13.24142629 1.56160508 9.47373749 0.9375 5.6875 C0.76089844 4.61886719 0.58429688 3.55023438 0.40234375 2.44921875 C0.26957031 1.64097656 0.13679688 0.83273437 0 0 Z " fill="#720103" transform="translate(398,496)"/>
<path d="M0 0 C4.76560621 1.40164889 7.95882443 4.15411474 11 8 C11 8.66 11 9.32 11 10 C10.34 10 9.68 10 9 10 C8.67 9.34 8.34 8.68 8 8 C7.360625 7.87625 6.72125 7.7525 6.0625 7.625 C4 7 4 7 2.875 5 C2.58625 4.34 2.2975 3.68 2 3 C1.34 2.67 0.68 2.34 0 2 C0 1.34 0 0.68 0 0 Z " fill="#7B080C" transform="translate(755,404)"/>
<path d="M0 0 C-2 2 -2 2 -5.3125 3.3125 C-9.01798987 4.81640175 -11.33098794 7.00747133 -14 10 C-14.66 9.67 -15.32 9.34 -16 9 C-14.40112446 7.51511559 -12.79571095 6.03726855 -11.1875 4.5625 C-10.29417969 3.73878906 -9.40085937 2.91507812 -8.48046875 2.06640625 C-5.25716141 -0.61883719 -4.0459773 -1.3486591 0 0 Z " fill="#7C0808" transform="translate(817,400)"/>
<path d="M0 0 C1.485 0.99 1.485 0.99 3 2 C3.05632424 4.80435411 2.95814702 7.35146678 2.6875 10.125 C2.62626953 10.87910156 2.56503906 11.63320313 2.50195312 12.41015625 C2.3485467 14.27463438 2.17606541 16.13752498 2 18 C1.67 18 1.34 18 1 18 C0.855625 16.7625 0.71125 15.525 0.5625 14.25 C0.29387326 12.03090955 0.00637311 10.02166856 -0.625 7.875 C-1.17556366 5.12218172 -0.55650393 2.72068589 0 0 Z " fill="#720001" transform="translate(646,442)"/>
<path d="M0 0 C-0.33 0.99 -0.66 1.98 -1 3 C-5.5304116 4.83462949 -10.30177726 5.51555572 -15 4 C-15 3.67 -15 3.34 -15 3 C-12.87562952 2.49733206 -10.75048274 1.9979439 -8.625 1.5 C-7.44164062 1.2215625 -6.25828125 0.943125 -5.0390625 0.65625 C-2 0 -2 0 0 0 Z " fill="#510000" transform="translate(885,436)"/>
<path d="M0 0 C0.99 0.66 1.98 1.32 3 2 C1.6078125 2.5259375 1.6078125 2.5259375 0.1875 3.0625 C-3.9857645 5.59919019 -4.46185496 7.4710174 -6 12 C-6.33 12 -6.66 12 -7 12 C-7.4375 8.8125 -7.4375 8.8125 -7 5 C-4.91454966 2.88841619 -2.58793807 1.43260857 0 0 Z " fill="#5D0000" transform="translate(295,520)"/>
<path d="M0 0 C0.78375 0.639375 1.5675 1.27875 2.375 1.9375 C6.55350178 4.78008655 11.07641598 4.80539194 16 5 C16 5.33 16 5.66 16 6 C11.03546401 7.21086244 7.80839417 6.63303953 3 5 C2.01 4.67 1.02 4.34 0 4 C0 2.68 0 1.36 0 0 Z " fill="#7B0507" transform="translate(579,499)"/>
<path d="M0 0 C0.33 0 0.66 0 1 0 C0.5188509 5.77378925 -1.18467181 9.95859836 -4 15 C-4.33 15 -4.66 15 -5 15 C-5 13.35 -5 11.7 -5 10 C-4.34 10 -3.68 10 -3 10 C-2.01 6.7 -1.02 3.4 0 0 Z " fill="#770609" transform="translate(247,532)"/>
<path d="M0 0 C0.33 0.99 0.66 1.98 1 3 C1.66 3 2.32 3 3 3 C5.125 7.625 5.125 7.625 4 11 C1.29727467 8.12835434 0.05208163 6.69008159 -0.25 2.6875 C-0.1675 1.800625 -0.085 0.91375 0 0 Z " fill="#7C080A" transform="translate(196,471)"/>
<path d="M0 0 C1.32 0 2.64 0 4 0 C5.32 2.31 6.64 4.62 8 7 C7.01 7.33 6.02 7.66 5 8 C1.125 2.25 1.125 2.25 0 0 Z " fill="#500000" transform="translate(692,396)"/>
<path d="M0 0 C0.33 0 0.66 0 1 0 C0.88557539 1.60495567 0.75805306 3.20898119 0.625 4.8125 C0.55539062 5.70582031 0.48578125 6.59914063 0.4140625 7.51953125 C0 10 0 10 -2 13 C-2.05447047 11.58376784 -2.09300508 10.16691809 -2.125 8.75 C-2.14820313 7.96109375 -2.17140625 7.1721875 -2.1953125 6.359375 C-1.9828378 3.79268059 -1.28654105 2.2083933 0 0 Z " fill="#7D0205" transform="translate(501,482)"/>
<path d="M0 0 C2.09749995 2.35968744 2.96905704 3.54616994 3.1875 6.75 C3.0946875 7.86375 3.0946875 7.86375 3 9 C2.01 8.34 1.02 7.68 0 7 C-0.1875 3.375 -0.1875 3.375 0 0 Z " fill="#5E0000" transform="translate(529,529)"/>
<path d="M0 0 C0.66 0.33 1.32 0.66 2 1 C2.73075648 3.3140622 3.40138258 5.64828869 4 8 C2.0625 7.1875 2.0625 7.1875 0 6 C-1 3 -1 3 0 0 Z " fill="#5E0000" transform="translate(282,419)"/>
<path d="M0 0 C0.33 0.99 0.66 1.98 1 3 C-0.25 5.1875 -0.25 5.1875 -2 7 C-2.99 7 -3.98 7 -5 7 C-3.70700306 4.11562221 -2.34058637 2.12780579 0 0 Z " fill="#800A0A" transform="translate(545,405)"/>
<path d="M0 0 C0.99 0.33 1.98 0.66 3 1 C1.68 2.65 0.36 4.3 -1 6 C-1.99 5.67 -2.98 5.34 -4 5 C-2.68 3.35 -1.36 1.7 0 0 Z " fill="#520000" transform="translate(697,548)"/>
<path d="M0 0 C3.93673644 1.31224548 6.22719294 2.91910327 9 6 C5.59687262 4.94124926 2.98646769 3.99097846 0 2 C0 1.34 0 0.68 0 0 Z " fill="#720106" transform="translate(655,548)"/>
<path d="M0 0 C2.17766075 4.35532149 2.03039555 5.46625958 1 10 C0.34 10 -0.32 10 -1 10 C-0.67 6.7 -0.34 3.4 0 0 Z " fill="#4C0000" transform="translate(497,507)"/>
<path d="M0 0 C2.375 0.25 2.375 0.25 5 1 C6.3125 3.0625 6.3125 3.0625 7 5 C2.25 3.125 2.25 3.125 0 2 C0 1.34 0 0.68 0 0 Z " fill="#5D0000" transform="translate(744,499)"/>
</svg>
